<svg width="90" height="91" viewBox="0 0 90 91" fill="none" xmlns="http://www.w3.org/2000/svg">
<path d="M73.4883 44.8401C74.122 44.2061 74.1177 43.1742 73.4786 42.5354C72.8395 41.8966 71.8076 41.8927 71.1739 42.5268C70.5401 43.1608 70.5445 44.1927 71.1836 44.8315C71.8227 45.4703 72.8545 45.4742 73.4883 44.8401Z" fill="#080F21"/>
<path d="M78.5307 37.7929C79.5272 36.7959 79.5204 35.1733 78.5155 34.1688C77.5105 33.1643 75.8879 33.1582 74.8913 34.1552C73.8948 35.1522 73.9016 36.7748 74.9066 37.7793C75.9116 38.7838 77.5341 38.7899 78.5307 37.7929Z" fill="#080F21"/>
<path d="M38.7457 15.1111C38.02 15.0386 37.2871 15.0995 36.5833 15.2908C36.3679 15.3475 36.1414 15.3461 35.9267 15.2867C35.712 15.2273 35.5169 15.112 35.3613 14.9527C33.9712 13.56 32.1826 12.6338 30.243 12.3022C28.3035 11.9707 26.3088 12.2501 24.5349 13.1019C22.7611 13.9536 21.2959 15.3356 20.3419 17.0566C19.3879 18.7776 18.9924 20.7526 19.2101 22.7082C19.2294 22.8818 19.2121 23.0575 19.1593 23.2239C19.1065 23.3904 19.0193 23.5439 18.9034 23.6745C18.126 24.5532 17.5577 25.5967 17.2415 26.7265C16.9252 27.8564 16.8691 29.0432 17.0775 30.1978C17.2858 31.3524 17.7531 32.4448 18.4442 33.3929C19.1354 34.341 20.0324 35.1201 21.0679 35.6717C22.1034 36.2233 23.2505 36.533 24.4229 36.5776C25.5953 36.6222 26.7626 36.4005 27.837 35.9291C28.9114 35.4578 29.865 34.749 30.6262 33.8562C31.3874 32.9633 31.9363 31.9096 32.2317 30.7741C32.2585 30.6692 32.3083 30.5715 32.3775 30.4881C32.4467 30.4048 32.5336 30.3379 32.6319 30.2924C34.1241 29.6007 35.4117 28.5342 36.3693 27.197C36.4478 27.0899 36.5552 27.0074 36.679 26.9593C36.8027 26.9113 36.9377 26.8995 37.0679 26.9255C37.4234 26.9933 37.7844 27.0277 38.1463 27.0284C39.678 27.0273 41.1508 26.4379 42.2603 25.382C43.3699 24.3261 44.0315 22.8843 44.1085 21.3546C44.1854 19.8248 43.6718 18.3239 42.6738 17.162C41.6758 16.0001 40.2696 15.2659 38.7457 15.1111Z" fill="white"/>
<path d="M39.162 14.7787C38.5084 14.7503 37.8535 14.7735 37.2035 14.8482C36.0176 14.951 35.5358 14.2042 34.651 13.5918C33.469 12.7781 32.1253 12.2292 30.7117 11.9825C28.04 11.5336 25.297 12.1004 23.0219 13.5714C20.8735 14.9527 19.3373 17.106 18.7305 19.5871C18.5826 20.2256 18.4991 20.8775 18.4813 21.5327C18.472 21.8727 18.5072 22.2109 18.5026 22.5518C18.486 23.1767 18.249 23.7755 17.8337 24.2426C16.91 25.4987 16.3738 26.9975 16.2911 28.5544C15.9881 34.5228 22.0964 38.288 27.4792 36.4054C28.7144 35.9765 29.8381 35.2769 30.7682 34.3579C31.6617 33.3804 32.3543 32.2368 32.8064 30.992C33.1288 30.2657 33.983 29.9803 34.6288 29.5245C35.2777 29.0649 35.8701 28.5303 36.3937 27.9319C36.756 27.5186 36.8014 27.376 37.3536 27.3556C37.6315 27.3463 37.9094 27.3806 38.1874 27.3686C38.8185 27.3387 39.4433 27.2288 40.0468 27.0415C41.3879 26.6581 42.5713 25.8559 43.424 24.7521C44.2768 23.6484 44.7542 22.3008 44.7867 20.9064C44.7577 19.3748 44.17 17.9065 43.1341 16.778C42.0982 15.6494 40.6856 14.9384 39.162 14.7787C38.7859 14.7314 37.5972 15.3521 38.3227 15.4448C39.6304 15.6057 40.8452 16.2043 41.7695 17.1432C42.6939 18.0822 43.2733 19.3063 43.4136 20.6164C43.5597 21.892 43.2597 23.1789 42.5646 24.2585C41.8694 25.338 40.822 26.1436 39.6003 26.5384C38.5811 26.8034 37.525 26.3661 36.5429 26.6922C36.1232 26.8479 35.7642 27.1336 35.5182 27.5075C34.9967 28.163 34.3936 28.7493 33.7236 29.2521C33.2085 29.6282 32.6063 29.8497 32.0958 30.2138C31.7123 30.5367 31.4556 30.9851 31.3713 31.4793C30.9488 32.6913 30.2191 33.7728 29.2534 34.6182C24.8147 38.4789 18.1765 34.8397 17.6539 29.3929C17.5224 28.0049 17.7743 26.6073 18.3822 25.3525C18.7239 24.7672 19.1024 24.204 19.5152 23.6664C19.8358 23.1148 19.9451 22.4655 19.8228 21.8393C19.7412 19.418 20.6074 17.0604 22.2372 15.2679C23.2738 14.1259 24.6055 13.2923 26.0857 12.8591C27.5658 12.4259 29.1368 12.4098 30.6255 12.8127C32.0568 13.2258 33.3745 13.9611 34.4778 14.9621C35.7749 16.0813 36.7291 15.3327 38.3189 15.4448C38.6914 15.4707 39.8764 14.8278 39.162 14.7787Z" fill="#080F21"/>
<path d="M29.3225 19.3228C29.0455 18.885 28.6771 18.5123 28.2424 18.2304C27.8078 17.9484 27.3173 17.7638 26.8046 17.6892C26.292 17.6147 25.7692 17.6519 25.2723 17.7985C24.7754 17.945 24.316 18.1973 23.9258 18.5381C23.8231 18.6306 23.6979 18.6944 23.5627 18.723C23.4276 18.7516 23.2872 18.7441 23.1559 18.7012C22.4094 18.4488 21.6187 18.3541 20.8338 18.4232C20.0488 18.4922 19.2867 18.7235 18.5958 19.1023C17.5745 19.674 16.7509 20.5426 16.2344 21.5929C15.7178 22.6432 15.5326 23.8257 15.7034 24.9836C15.8147 25.7691 16.0951 26.5211 16.5251 27.1877C16.582 27.2768 16.6196 27.3768 16.6356 27.4813C16.6515 27.5858 16.6455 27.6925 16.6178 27.7946C16.2998 28.969 16.4532 30.2211 17.0452 31.2841C17.6372 32.347 18.6209 33.1367 19.7868 33.4847C20.9526 33.8327 22.2083 33.7115 23.2861 33.147C24.3639 32.5825 25.1786 31.6193 25.5564 30.4628C25.6089 30.3014 25.6996 30.1552 25.821 30.0366C25.9423 29.918 26.0906 29.8306 26.2531 29.7818C26.7783 29.6205 27.265 29.3535 27.6833 28.9973C28.1016 28.6411 28.4426 28.2031 28.6856 27.7104C28.9285 27.2176 29.0681 26.6803 29.0959 26.1316C29.1237 25.5829 29.0391 25.0343 28.8472 24.5195C28.7892 24.3581 28.775 24.1843 28.8061 24.0156C28.8371 23.847 28.9124 23.6896 29.0242 23.5596C29.5183 22.9771 29.8137 22.2521 29.8673 21.4901C29.921 20.7281 29.7301 19.9689 29.3225 19.3228Z" fill="#3A1E44"/>
<path d="M28.6419 19.0513C28.3648 18.6135 27.9964 18.2409 27.5618 17.9589C27.1272 17.6769 26.6367 17.4923 26.124 17.4177C25.6113 17.3432 25.0885 17.3805 24.5916 17.527C24.0947 17.6735 23.6354 17.9259 23.2451 18.2666C23.1426 18.359 23.0176 18.4227 22.8825 18.4514C22.7475 18.48 22.6074 18.4725 22.4762 18.4297C21.7296 18.1771 20.9388 18.0823 20.1537 18.1512C19.3685 18.2201 18.6063 18.4512 17.9151 18.8299C16.8941 19.4021 16.0709 20.2709 15.5545 21.3213C15.0382 22.3717 14.853 23.5542 15.0236 24.7121C15.1347 25.4975 15.4147 26.2495 15.8445 26.9162C15.9021 27.005 15.9405 27.1048 15.9574 27.2093C15.9743 27.3138 15.9693 27.4206 15.9427 27.5231C15.6263 28.697 15.7807 29.948 16.3729 31.0099C16.9652 32.0717 17.9485 32.8604 19.1135 33.208C20.2786 33.5557 21.5333 33.4348 22.6106 32.8712C23.6879 32.3076 24.5026 31.3457 24.8813 30.1904C24.9339 30.0292 25.0247 29.8831 25.146 29.7647C25.2674 29.6463 25.4156 29.559 25.578 29.5104C26.1034 29.3494 26.5904 29.0826 27.0089 28.7265C27.4274 28.3703 27.7686 27.9323 28.0116 27.4394C28.2546 26.9465 28.3942 26.4091 28.4218 25.8603C28.4494 25.3114 28.3644 24.7628 28.1721 24.248C28.1144 24.0865 28.1004 23.9127 28.1317 23.7441C28.1629 23.5755 28.2383 23.4182 28.35 23.2881C28.8434 22.705 29.1377 21.9796 29.1902 21.2176C29.2427 20.4555 29.0506 19.6966 28.6419 19.0513Z" fill="white"/>
<path d="M29.2652 18.7725C28.8032 18.1037 28.1585 17.5821 27.408 17.2699C26.6575 16.9578 25.833 16.8683 25.033 17.0122C24.6093 17.0797 24.1966 17.2043 23.8064 17.3827C23.5109 17.5199 23.1097 17.9562 22.8197 18.0127C23.0346 17.971 22.3935 17.8793 22.3898 17.8784C21.615 17.6937 20.8136 17.6472 20.0227 17.7413C19.1579 17.8351 18.3214 18.1042 17.5641 18.5322C16.8068 18.9601 16.1448 19.538 15.6184 20.2305C15.092 20.9229 14.7122 21.7154 14.5024 22.5596C14.2926 23.4037 14.2571 24.2818 14.3981 25.1401C14.4883 25.6108 14.6387 26.0679 14.8455 26.5002C15.0732 26.8231 15.2194 27.1963 15.2717 27.5879C15.2662 28.065 15.0966 28.5329 15.1133 29.0276C15.1282 29.5632 15.2328 30.0924 15.4227 30.5934C15.7155 31.3416 16.1812 32.0099 16.7819 32.5436C17.3825 33.0772 18.101 33.4611 18.8785 33.6637C19.6999 33.872 20.5572 33.8956 21.3888 33.7329C22.2204 33.5701 23.0056 33.225 23.6878 32.7224C24.2992 32.2732 24.8069 31.6978 25.1767 31.0353C25.399 30.6286 25.4648 30.0746 25.8928 29.8429C26.3256 29.6562 26.7467 29.4433 27.1537 29.2055C27.8927 28.6981 28.4625 27.9805 28.7892 27.1458C29.1159 26.311 29.1846 25.3974 28.9863 24.5231C28.888 24.2867 28.8255 24.0368 28.801 23.7819C28.8297 23.4484 29.1003 23.226 29.2717 22.9574C29.6712 22.3335 29.8836 21.6081 29.8836 20.8672C29.8836 20.1263 29.6712 19.401 29.2717 18.7771C29.0132 18.3324 27.7161 18.7873 28.0339 19.333C28.459 20.0365 28.6156 20.8699 28.4749 21.6797C28.3985 22.1024 28.2392 22.5058 28.0061 22.8666C27.7875 23.1196 27.6128 23.4074 27.4891 23.718C27.3233 24.3749 27.755 25.0586 27.7606 25.7294C27.7682 26.4883 27.5446 27.2315 27.1195 27.8603C26.7147 28.4362 26.1435 28.8746 25.4824 29.1166C25.2086 29.1972 24.9555 29.3362 24.7406 29.5239C24.5256 29.7117 24.3539 29.9438 24.2372 30.2043C24.01 30.9105 23.5931 31.5408 23.032 32.0262C22.471 32.5116 21.7873 32.8336 21.0557 32.9568C20.3317 33.0181 19.6042 32.8891 18.9454 32.5826C18.2865 32.2762 17.7193 31.8028 17.2998 31.2095C16.8387 30.5677 16.5569 29.8145 16.4835 29.0276C16.4141 28.2865 16.8439 27.422 16.5271 26.7383C16.184 26.1236 15.9218 25.4672 15.747 24.7853C15.6003 23.9938 15.6269 23.1799 15.8248 22.3996C16.0011 21.6614 16.3396 20.9718 16.8157 20.3808C17.2919 19.7897 17.8936 19.3122 18.5774 18.9828C19.5242 18.5548 20.5865 18.4544 21.5968 18.6974C21.9179 18.8313 22.2653 18.8901 22.6126 18.8693C22.9598 18.8486 23.2978 18.749 23.6007 18.5779C23.9309 18.2881 24.3218 18.0758 24.7447 17.9567C25.1676 17.8376 25.6118 17.8146 26.0448 17.8895C26.8694 18.0951 27.5823 18.6121 28.0339 19.3321C28.3192 19.7647 29.6145 19.2913 29.2652 18.7725Z" fill="#080F21"/>
<path d="M64.899 35.9608V65.9693H61.7583V55.0554C61.7588 53.8872 61.3131 52.7629 60.5124 51.9122C59.7116 51.0616 58.6163 50.5488 57.4502 50.4786V35.9608C57.4502 34.973 57.8426 34.0257 58.5411 33.3272C59.2395 32.6287 60.1868 32.2363 61.1746 32.2363C62.1624 32.2363 63.1097 32.6287 63.8082 33.3272C64.5067 34.0257 64.899 34.973 64.899 35.9608Z" fill="white"/>
<path d="M64.2233 36.0218V66.0304L65.1423 65.5144H62.0016L62.437 65.9072V57.391C62.4945 56.339 62.4778 55.2842 62.387 54.2345C62.1952 53.1066 61.6272 52.0769 60.7754 51.3131C59.9236 50.5493 58.8383 50.0965 57.6963 50.0283L58.1317 50.4211V40.5782C58.1317 39.0959 58.1141 37.6135 58.1317 36.1311C58.101 35.6011 58.192 35.0711 58.3979 34.5818C58.6038 34.0924 58.919 33.6568 59.3194 33.3082C61.4253 31.6294 64.1075 33.6704 64.2298 36.0292C64.2631 36.6917 65.6121 36.4508 65.5843 35.906C65.5576 35.2233 65.3686 34.5567 65.0328 33.9616C64.697 33.3666 64.2242 32.8602 63.6535 32.4844C63.0828 32.1087 62.4308 31.8745 61.7515 31.8012C61.0722 31.7279 60.3852 31.8176 59.7475 32.063C58.8612 32.3712 58.0961 32.9536 57.563 33.7259C57.03 34.4982 56.7567 35.4201 56.7828 36.3581C56.7596 39.8435 56.7828 43.3308 56.7828 46.8171V50.5471C56.7828 50.7982 56.9857 50.9177 57.2191 50.94C58.2833 51.0405 59.2712 51.5362 59.9879 52.3292C60.7046 53.1223 61.0981 54.1551 61.0909 55.224C61.1205 56.3311 61.0909 57.4429 61.0909 58.551V66.0378C61.093 66.0925 61.106 66.1463 61.1292 66.1958C61.1525 66.2454 61.1854 66.2898 61.2261 66.3264C61.2668 66.363 61.3144 66.3911 61.3661 66.409C61.4178 66.4269 61.4726 66.4343 61.5272 66.4307H64.668C64.9348 66.4307 65.5861 66.3111 65.5861 65.9146V35.906C65.5778 35.2399 64.2233 35.4696 64.2233 36.0218Z" fill="#080F21"/>
<path d="M62.8767 65.9687V35.9592C62.8781 35.1473 62.6135 34.3574 62.1235 33.71C61.6334 33.0627 60.9449 32.5937 60.1631 32.3747C60.4925 32.2797 60.8338 32.2319 61.1766 32.2329C61.6661 32.2326 62.1508 32.3287 62.6031 32.5158C63.0553 32.703 63.4662 32.9774 63.8123 33.3235C64.1584 33.6696 64.4329 34.0805 64.62 34.5328C64.8072 34.9851 64.9033 35.4698 64.9029 35.9592V65.9687" fill="#080F21"/>
<path opacity="0.2" d="M65.6068 37.146H56.8701V45.098H65.6068V37.146Z" fill="url(#paint0_linear_1387_20176)"/>
<path d="M54.0904 35.9609V51.2107L52.0707 51.8315L46.6416 53.4899V35.9609C46.6413 35.1491 46.9064 34.3594 47.3965 33.7121C47.8865 33.0648 48.5747 32.5955 49.3562 32.3755C49.3654 32.3755 49.384 32.3662 49.3932 32.3662C49.5299 32.3277 49.6692 32.2999 49.8101 32.2828C49.8309 32.2752 49.853 32.2721 49.875 32.2735C50.0373 32.247 50.2016 32.2347 50.366 32.2365C51.3537 32.237 52.3007 32.6295 52.999 33.3279C53.6974 34.0263 54.09 34.9733 54.0904 35.9609Z" fill="white"/>
<path d="M53.4088 36.0293V51.2791L53.9795 50.8158C51.4972 51.578 49.0142 52.3377 46.5307 53.095L47.3108 53.4183C47.3108 47.6139 47.1746 41.7938 47.3108 35.9903C47.283 35.3585 47.4363 34.7319 47.7526 34.1842C48.0688 33.6365 48.535 33.1905 49.0961 32.8987C51.302 31.9111 53.3087 34.0364 53.4134 36.1414C53.4385 36.6509 54.7846 36.3591 54.7559 35.7819C54.5845 32.3363 50.6312 30.7789 47.8944 32.5929C46.2889 33.6565 45.96 35.264 45.96 37.0308V53.5591C45.96 53.9455 46.4612 53.9686 46.741 53.8834C49.2239 53.1249 51.7069 52.3652 54.1898 51.6043C54.3668 51.5496 54.7596 51.3884 54.7596 51.141V35.8912C54.7596 35.2649 53.4088 35.5151 53.4088 36.0293Z" fill="#080F21"/>
<path d="M54.0849 35.9604V51.2103L52.0652 51.831V35.9604C52.0657 35.47 51.9694 34.9843 51.7818 34.5312C51.5942 34.0781 51.319 33.6665 50.9719 33.32C50.5187 32.8748 49.9613 32.5499 49.3506 32.375C49.3599 32.375 49.3784 32.3657 49.3876 32.3657C49.5243 32.3273 49.6637 32.2994 49.8046 32.2823C49.8253 32.2747 49.8474 32.2716 49.8694 32.2731C50.0317 32.2466 50.196 32.2342 50.3604 32.236C50.8605 32.234 51.3556 32.3349 51.815 32.5325C52.2588 32.7133 52.662 32.9811 53.0009 33.32C53.3398 33.6588 53.6075 34.062 53.7884 34.5059C53.9859 34.9653 54.0868 35.4604 54.0849 35.9604Z" fill="#080F21"/>
<path d="M34.3825 57.2234L16.2328 62.7637C15.5793 62.9622 14.9559 63.249 14.3799 63.6161L15.9642 48.3941L16.3069 45.0958L16.6219 42.057L17.1315 37.1466L17.6411 32.2363H31.7883L32.2979 37.1466L32.8074 42.057L33.1317 45.0958L33.4652 48.3941L34.3825 57.2234Z" fill="#080F21"/>
<path d="M38.8262 12.1714C40.9711 12.1714 42.7099 10.4325 42.7099 8.28759C42.7099 6.14263 40.9711 4.40381 38.8262 4.40381C36.6812 4.40381 34.9424 6.14263 34.9424 8.28759C34.9424 10.4325 36.6812 12.1714 38.8262 12.1714Z" fill="#080F21"/>
<path d="M47.6822 11.6433C48.7834 11.6433 49.676 10.7507 49.676 9.64952C49.676 8.54839 48.7834 7.65576 47.6822 7.65576C46.5811 7.65576 45.6885 8.54839 45.6885 9.64952C45.6885 10.7507 46.5811 11.6433 47.6822 11.6433Z" fill="#080F21"/>
<path d="M75.7091 55.5V81.849C75.7067 82.927 75.2774 83.9601 74.5152 84.7223C73.753 85.4845 72.7199 85.9138 71.6419 85.9162H57.1611V85.2955H61.7564V55.0553C61.7569 53.887 61.3112 52.7627 60.5105 51.9121C59.7098 51.0614 58.6145 50.5486 57.4483 50.4785C57.3557 50.4692 57.2538 50.4692 57.1611 50.4692V50.0986H70.3078C71.7403 50.0986 73.1142 50.6677 74.1271 51.6806C75.1401 52.6936 75.7091 54.0675 75.7091 55.5Z" fill="#080F21"/>
<path opacity="0.2" d="M61.1326 55.3201V68.3056C58.824 69.2946 56.3295 69.7748 53.8188 69.7135C51.308 69.6522 48.8399 69.0509 46.5823 67.9505C44.3248 66.8501 42.3306 65.2764 40.7356 63.3364C39.1406 61.3965 37.9821 59.1357 37.3389 56.708L55.5163 51.1593C56.1664 50.9611 56.8539 50.918 57.5236 51.0335C58.1934 51.149 58.8268 51.4199 59.3729 51.8245C59.919 52.2291 60.3626 52.7561 60.6682 53.3632C60.9738 53.9702 61.1329 54.6405 61.1326 55.3201Z" fill="url(#paint1_linear_1387_20176)"/>
<path opacity="0.2" d="M15.5698 68.6502C15.5698 72.8268 14.0198 76.2112 12.1057 76.2112C11.8638 76.2104 11.625 76.1576 11.4053 76.0565V70.2576C11.4053 70.1474 11.4053 70.039 11.4127 69.9306C11.4624 68.7232 11.792 67.5438 12.3755 66.4855C12.959 65.4273 13.7804 64.519 14.7749 63.8325C15.323 65.3787 15.5921 67.0099 15.5698 68.6502Z" fill="url(#paint2_linear_1387_20176)"/>
<path d="M60.7405 55.1361V85.3763L61.8523 84.574H16.0557C15.0798 84.7028 14.0887 84.5026 13.2392 84.0051C11.3307 82.6719 11.7198 80.2121 11.7198 78.1933V71.0965C11.7198 68.0317 12.7037 65.0818 15.7102 63.7116C16.9886 63.2084 18.2983 62.7888 19.631 62.4552L26.7018 60.2966C30.0254 59.2818 33.349 58.2688 36.6726 57.2577C40.048 56.2343 43.4219 55.2056 46.7943 54.1716C48.5379 53.6386 50.2815 53.1059 52.0252 52.5735L54.2385 51.8934C55.2351 51.4557 56.3111 51.2277 57.3996 51.2236C58.3259 51.3826 59.1672 51.861 59.7775 52.5757C60.3878 53.2905 60.7285 54.1963 60.7405 55.1361C60.7757 56.1737 62.8075 55.8523 62.7787 54.974C62.649 51.1902 59.109 49.0389 55.5856 50.0238C53.9263 50.487 52.2873 51.0355 50.6401 51.5386C46.6871 52.7461 42.7342 53.952 38.7812 55.1565C31.4516 57.3924 24.1222 59.6277 16.7932 61.8623C15.508 62.1747 14.2997 62.7453 13.2418 63.5392C12.1839 64.3332 11.2986 65.334 10.6396 66.4808C9.5278 68.5895 9.67974 70.8686 9.67974 73.1626V80.5559C9.61976 81.4365 9.74376 82.3199 10.0438 83.15C10.386 83.923 10.9258 84.5921 11.609 85.09C12.2921 85.5879 13.0944 85.8969 13.935 85.9859C16.2734 86.1308 18.6181 86.1422 20.9577 86.0202H61.6651C62.0505 86.0202 62.7769 85.683 62.7769 85.217V54.9767C62.7778 53.9391 60.7405 54.2522 60.7405 55.1361Z" fill="#080F21"/>
<path opacity="0.2" d="M54.5907 37.145H45.9365V45.097H54.5907V37.145Z" fill="url(#paint3_linear_1387_20176)"/>
<path d="M23.0252 71.8467C23.8837 71.8467 24.7071 72.1877 25.3142 72.7948C25.9212 73.4019 26.2623 74.2252 26.2623 75.0838V80.5222H19.7881V75.0838C19.7881 74.2252 20.1291 73.4019 20.7362 72.7948C21.3433 72.1877 22.1667 71.8467 23.0252 71.8467Z" fill="#080F21"/>
<path d="M36.3114 71.8467C37.1699 71.8467 37.9933 72.1877 38.6003 72.7948C39.2074 73.4019 39.5485 74.2252 39.5485 75.0838V80.5222H33.0752V75.0838C33.0752 74.2252 33.4162 73.4019 34.0233 72.7948C34.6304 72.1877 35.4528 71.8467 36.3114 71.8467Z" fill="#080F21"/>
<path d="M49.5935 71.8467C50.4521 71.8467 51.2754 72.1877 51.8825 72.7948C52.4896 73.4019 52.8306 74.2252 52.8306 75.0838V80.5222H46.3564V75.0838C46.3564 74.2252 46.6975 73.4019 47.3046 72.7948C47.9116 72.1877 48.735 71.8467 49.5935 71.8467Z" fill="#080F21"/>
<defs>
<linearGradient id="paint0_linear_1387_20176" x1="56.8701" y1="41.1215" x2="65.6077" y2="41.1215" gradientUnits="userSpaceOnUse">
<stop offset="0.005" stop-color="#3063BA"/>
<stop offset="1" stop-color="#A3BFF6"/>
</linearGradient>
<linearGradient id="paint1_linear_1387_20176" x1="37.3389" y1="60.3435" x2="61.1326" y2="60.3435" gradientUnits="userSpaceOnUse">
<stop offset="0.005" stop-color="#3063BA"/>
<stop offset="1" stop-color="#A3BFF6"/>
</linearGradient>
<linearGradient id="paint2_linear_1387_20176" x1="11.4053" y1="70.0223" x2="15.5698" y2="70.0223" gradientUnits="userSpaceOnUse">
<stop offset="0.005" stop-color="#3063BA"/>
<stop offset="1" stop-color="#A3BFF6"/>
</linearGradient>
<linearGradient id="paint3_linear_1387_20176" x1="45.9365" y1="41.1215" x2="54.5907" y2="41.1215" gradientUnits="userSpaceOnUse">
<stop offset="0.005" stop-color="#3063BA"/>
<stop offset="1" stop-color="#A3BFF6"/>
</linearGradient>
</defs>
</svg>
