<svg width="90" height="91" viewBox="0 0 90 91" fill="none" xmlns="http://www.w3.org/2000/svg">
<path d="M34.8805 66.1901L14.1801 73.978C8.5924 67.8663 8.13873 57.5321 11.6234 53.1153L38.2029 48.7749C31.2997 49.9117 29.9511 64.6431 34.8805 66.186" fill="white"/>
<path d="M34.6095 65.9553L16.4937 72.7758L13.9102 73.7482L14.8867 73.71C12.2544 70.6701 10.6405 66.882 10.2715 62.8777C9.92841 59.6007 10.2529 55.8019 12.3166 53.0943L11.5116 53.4581L34.718 49.6716L38.0921 49.1219L38.335 48.4377C34.1641 49.2148 32.0869 53.1914 31.4307 57.0647C30.9419 59.9583 30.8055 65.3124 34.285 66.5143C34.6715 66.6486 36.0253 66.0483 35.4972 65.8664C32.5179 64.833 32.5003 60.1009 32.8103 57.599C33.1762 54.6021 34.5982 49.7739 38.0952 49.1249C38.736 49.0051 39.3911 48.2693 38.3381 48.4408L21.7776 51.1432L12.9429 52.5848C12.3399 52.6083 11.7456 52.736 11.1861 52.9621C9.75376 53.8415 9.15748 56.67 8.90636 58.1643C8.44707 61.0182 8.61936 63.9381 9.41107 66.7182C10.2028 69.4982 11.5946 72.0709 13.4885 74.2547C13.6838 74.4738 14.2626 74.2939 14.4651 74.2175L32.5809 67.3968L35.1645 66.4244C36.1514 66.0534 35.2358 65.7196 34.6116 65.9542L34.6095 65.9553Z" fill="#080F21"/>
<path d="M31.8042 62.0352L15.7666 67.4906C15.7666 68.7917 17.2888 71.8733 18.3667 72.4003L34.5014 66.0913C33.1642 65.7885 32.3654 64.257 31.8042 62.0352Z" fill="#080F21"/>
<path d="M41.392 58.715C42.6114 53.9293 41.3676 49.4808 38.6139 48.7792C35.8602 48.0775 32.6393 51.3883 31.4199 56.174C30.2004 60.9598 31.4443 65.4082 34.198 66.1098C36.9517 66.8115 40.1726 63.5007 41.392 58.715Z" fill="#3A1E44"/>
<path d="M41.8314 58.7203C43.0508 53.9346 41.8071 49.4862 39.0533 48.7846C36.2996 48.0829 33.0787 51.3937 31.8593 56.1794C30.6399 60.9651 31.8837 65.4135 34.6374 66.1152C37.3912 66.8169 40.612 63.5061 41.8314 58.7203Z" fill="white"/>
<path d="M32.2378 56.1306C32.9271 53.5305 34.3956 50.2029 37.0949 49.125C39.8076 48.0399 41.4001 51.0565 41.7752 53.2587C42.2564 56.5219 41.5757 59.8505 39.8521 62.6629C38.6647 64.5995 36.0852 67.2523 33.7456 65.3229C31.2313 63.2488 31.5578 58.9291 32.2409 56.1347C32.3091 55.8588 31.5558 55.9704 31.4927 56.2277C30.7838 59.1275 30.4728 63.6684 33.1917 65.728C35.3143 67.335 37.9661 65.8768 39.4749 64.152C40.682 62.6878 41.5809 60.9948 42.1173 59.1745C42.6538 57.3543 42.8169 55.4443 42.5968 53.5594C42.2868 51.0503 40.8255 48.0823 37.8493 48.5246C34.3088 49.0413 32.3019 53.175 31.4927 56.2277C31.4173 56.4985 32.1748 56.3869 32.2378 56.1306Z" fill="#080F21"/>
<path d="M40.867 58.4747C41.7893 54.8548 40.8755 51.497 38.8258 50.9747C36.7761 50.4524 34.3668 52.9635 33.4445 56.5834C32.5221 60.2032 33.436 63.5611 35.4857 64.0833C37.5353 64.6056 39.9446 62.0945 40.867 58.4747Z" fill="#080F21"/>
<path d="M41.9562 55.2961C41.6433 55.5278 41.3027 55.7198 40.9424 55.8675C40.5611 56.017 40.1625 56.1184 39.7561 56.1693C38.8839 56.7733 38.084 57.4755 37.372 58.262C36.6695 59.0515 36.0513 59.9122 35.5273 60.83C35.1288 60.5499 34.8067 60.1747 34.5903 59.7383C34.3738 59.3019 34.27 58.8183 34.2882 58.3316C34.3063 57.8449 34.446 57.3704 34.6944 56.9514C34.9427 56.5324 35.292 56.1822 35.7103 55.9326L38.3858 54.5303C38.9803 54.2376 39.6561 54.1541 40.304 54.293C40.9519 54.432 41.534 54.7854 41.9562 55.2961Z" fill="white"/>
<path d="M36.8 59.7075C37.5865 59.7075 38.2241 59.0699 38.2241 58.2834C38.2241 57.4969 37.5865 56.8594 36.8 56.8594C36.0135 56.8594 35.376 57.4969 35.376 58.2834C35.376 59.0699 36.0135 59.7075 36.8 59.7075Z" fill="#080F21"/>
<path d="M28.9028 50.2029C25.6455 52.5453 23.9555 56.2095 23.8328 61.1954L7.84691 66.2654L7.10181 65.8231C6.37122 63.1867 6.3357 60.4061 6.9987 57.7519C7.6617 55.0977 9.00063 52.6604 10.8852 50.6773L28.3396 49.1023C28.4466 49.0912 28.5537 49.1222 28.6382 49.1887C28.7228 49.2553 28.778 49.3522 28.7922 49.4588L28.9028 50.2029Z" fill="#080F21"/>
<path d="M62.1511 73.6011L61.4494 73.6228C60.793 73.6234 60.1626 73.3658 59.6945 72.9056C59.2264 72.4454 58.9581 71.8196 58.9475 71.1632L58.8721 69.3506L62.2823 69.362L62.1511 73.6011Z" fill="#898D94"/>
<path d="M70.9245 72.6952C68.4914 73.3266 65.9837 73.6242 63.4704 73.5799C62.219 73.3101 61.323 71.9946 61.6795 69.8905C61.7347 69.4932 61.9243 69.1268 62.2166 68.8521C62.509 68.5775 62.8865 68.4111 63.2865 68.3807C65.6436 68.1784 68.0123 68.1494 70.3737 68.2939L70.9245 72.6952Z" fill="#DDDEDF"/>
<path d="M74.6247 71.6376C74.3653 71.7999 74.0956 71.9477 73.8259 72.1017C73.6817 72.1828 73.5165 72.2188 73.3516 72.205C73.2482 72.173 73.1356 72.1409 73.0281 72.1192C72.78 72.0635 72.5235 72.0562 72.2727 72.0975L72.1538 72.1192C71.8246 72.1601 71.5178 72.3078 71.2806 72.5398C71.2394 72.589 71.1883 72.6289 71.1306 72.6569C71.0729 72.6848 71.0099 72.7003 70.9458 72.7021C70.4291 72.6907 69.8782 71.6986 69.7274 70.4792C69.5765 69.2598 69.8782 68.2893 70.396 68.3007C70.4972 68.3032 70.5951 68.3371 70.676 68.3978C70.9011 68.5109 71.1556 68.5517 71.4047 68.5147C71.6539 68.4777 71.8855 68.3647 72.0681 68.1912C72.1001 68.1592 72.035 68.742 72.0898 68.742L72.3161 68.7306C72.6414 68.713 72.9569 68.6127 73.2327 68.4392C73.3065 68.3921 73.3934 68.3697 73.4807 68.3751C73.9975 68.3855 74.5379 69.3052 74.6785 70.4347C74.7232 70.8361 74.7051 71.2419 74.6247 71.6376Z" fill="#080F21"/>
<path d="M78.8858 68.1424C77.7245 69.5914 76.2732 70.7818 74.6251 71.6374C74.3657 71.7996 74.0959 71.9474 73.8262 72.1014C73.682 72.1825 73.5168 72.2185 73.3519 72.2047C73.2394 72.198 73.1294 72.1688 73.0284 72.1189C72.8795 72.0406 72.7532 71.9253 72.6616 71.7841C72.2803 71.2193 72.0365 70.573 71.9495 69.8971C71.9009 69.5139 71.9009 69.126 71.9495 68.7428C71.9469 68.7172 71.9505 68.6913 71.9599 68.6673C72.0278 68.1687 72.2417 67.7012 72.5748 67.3238C73.0466 66.8515 73.5802 66.4452 74.161 66.1158C74.6137 65.8347 75.0457 65.5991 75.3474 65.3924C75.4484 65.3232 75.5671 65.2844 75.6894 65.2806C75.8117 65.2767 75.9326 65.308 76.0377 65.3707L78.9075 67.2154L78.9933 67.4313C79.0364 67.5494 79.0491 67.6763 79.0303 67.8006C79.0115 67.9248 78.9618 68.0423 78.8858 68.1424Z" fill="white"/>
<path d="M78.5345 68.1388C77.5797 69.3383 76.4073 70.3469 75.0787 71.112C74.7573 71.3114 74.4359 71.5119 74.1094 71.7031C73.9389 71.8064 73.6795 72.0131 73.4686 71.9966C73.2299 71.9769 73.0553 71.7237 72.9406 71.5429C72.4835 70.809 72.2554 69.9556 72.2854 69.0916C72.2868 68.6788 72.3813 68.2716 72.5618 67.9004C72.7424 67.5291 73.0043 67.2034 73.3281 66.9473C73.9947 66.4571 74.6908 66.0084 75.4125 65.6038C75.5686 65.5005 75.6192 65.4891 75.7814 65.5801C75.8848 65.64 75.9881 65.7123 76.0915 65.7774L77.1435 66.4533L78.3319 67.217C78.4238 67.266 78.5116 67.3223 78.5944 67.3854C78.6409 67.4288 78.5148 67.2821 78.5417 67.341C78.5686 67.3999 78.5903 67.4547 78.6099 67.5115C78.65 67.6147 78.6644 67.726 78.652 67.836C78.6396 67.946 78.6007 68.0513 78.5386 68.1429C78.3588 68.424 79.1049 68.3496 79.2331 68.1491C79.3016 68.0619 79.3523 67.962 79.382 67.8551C79.4118 67.7483 79.4201 67.6365 79.4065 67.5264C79.3928 67.4163 79.3575 67.31 79.3026 67.2136C79.2476 67.1172 79.1741 67.0327 79.0863 66.9648L77.9185 66.2146L76.6113 65.3703C76.4415 65.2348 76.2402 65.1443 76.0262 65.1073C75.8121 65.0702 75.5921 65.0878 75.3867 65.1584C74.9917 65.3381 74.6151 65.5558 74.2623 65.8084C73.8161 66.0678 73.3836 66.35 72.9664 66.6538C72.5806 66.9078 72.2548 67.2427 72.0116 67.6353C71.7683 68.0279 71.6135 68.4688 71.5579 68.9273C71.4594 69.8864 71.6694 70.8518 72.1572 71.6834C72.2367 71.8577 72.3546 72.0118 72.5021 72.134C72.6495 72.2563 72.8228 72.3435 73.0088 72.3893C73.5041 72.4401 74.0005 72.3041 74.4008 72.0079C76.2576 71.0629 77.9013 69.7479 79.231 68.144C79.3343 68.0013 79.139 67.9373 79.0315 67.9373C78.939 67.9325 78.8465 67.9481 78.7607 67.9829C78.6748 68.0177 78.5976 68.0709 78.5345 68.1388Z" fill="#080F21"/>
<path d="M80.5527 65.4138C80.4987 65.4665 80.4366 65.5102 80.3687 65.543C79.9184 65.7208 79.5342 66.0338 79.2692 66.439L79.2144 66.5361C79.0345 66.7996 78.9404 67.1121 78.9447 67.4311C78.9546 67.4927 78.9505 67.5557 78.9326 67.6155C78.9147 67.6753 78.8835 67.7302 78.8413 67.7762C78.5065 68.1431 77.5361 67.9054 76.6629 67.2368C75.7896 66.5682 75.3463 65.7373 75.6811 65.3704C75.746 65.3034 75.8278 65.2552 75.9178 65.2309C76.3574 65.0828 76.7413 64.8042 77.0184 64.4321L77.1476 64.2595C77.3388 64.0093 77.4684 63.7176 77.5258 63.408C77.5377 63.3238 77.5736 63.245 77.6291 63.1806C77.964 62.8138 78.8806 63.0194 79.696 63.6343C80.4989 64.2502 80.8865 65.0469 80.5527 65.4138Z" fill="#080F21"/>
<path d="M82.0281 62.7595C81.8214 63.3961 81.6148 63.9996 81.4019 64.5401C80.7446 66.1791 78.9971 67.0534 77.9069 66.2763C77.5192 65.9977 77.1715 65.6674 76.8734 65.2945C76.739 65.0766 76.6652 64.8268 76.6595 64.5708C76.6539 64.3149 76.7167 64.062 76.8414 63.8384C77.0879 63.2885 77.4111 62.7763 77.8015 62.3172L78.7935 61.1525C79.0503 60.7976 79.4027 60.523 79.8097 60.3607C80.2166 60.1984 80.6613 60.1551 81.0919 60.2359C81.3221 60.3365 81.5297 60.4824 81.7023 60.665C81.8748 60.8476 82.0088 61.0632 82.0962 61.2987C82.1836 61.5343 82.2226 61.7851 82.2109 62.0361C82.1992 62.2871 82.1371 62.5331 82.0281 62.7595Z" fill="white"/>
<path d="M81.6555 62.8032C81.2783 63.972 80.9507 65.3455 79.844 66.0492C79.6714 66.1733 79.4747 66.2597 79.2665 66.3028C79.0584 66.3459 78.8435 66.3446 78.6359 66.2992C78.0757 66.0724 77.5953 65.6849 77.2552 65.1853C76.7881 64.5807 77.1767 63.8015 77.5084 63.2331C77.7396 62.8503 78.0045 62.4889 78.3 62.1532C78.7371 61.4921 79.3117 60.9331 79.9845 60.5142C80.234 60.3943 80.5174 60.3648 80.7862 60.4307C81.055 60.4967 81.2926 60.6541 81.4582 60.8759C81.6381 61.1599 81.7496 61.4818 81.7839 61.8163C81.8181 62.1508 81.7742 62.4886 81.6555 62.8032C81.5749 63.076 82.3283 62.9737 82.4058 62.7133C82.5214 62.3848 82.5661 62.0356 82.5369 61.6886C82.5077 61.3416 82.4052 61.0047 82.2363 60.7002C82.0576 60.4398 81.8111 60.2332 81.5235 60.1028C81.2359 59.9724 80.9181 59.9231 80.6045 59.9603C79.8487 60.0329 79.1456 60.3795 78.6276 60.9348C78.3682 61.2055 78.1347 61.5042 77.8918 61.7884C77.575 62.1391 77.2793 62.5084 77.0062 62.8941C76.5928 63.5204 76.0565 64.4071 76.3789 65.179C76.5533 65.5157 76.7974 65.8112 77.0951 66.0461C77.3299 66.2795 77.6011 66.4732 77.898 66.6197C78.4586 66.8337 79.079 66.8303 79.6373 66.6103C80.3261 66.3584 80.9212 65.9015 81.3424 65.301C81.8251 64.4984 82.1836 63.6273 82.4058 62.7175C82.4916 62.4488 81.7392 62.5459 81.6555 62.8032Z" fill="#080F21"/>
<path d="M59.9286 76.8473L59.2279 76.7936C58.5752 76.7248 57.9755 76.4026 57.5579 75.8963C57.1403 75.3899 56.938 74.7399 56.9947 74.086L57.1136 72.2734L60.5011 72.6403L59.9286 76.8473Z" fill="#080F21"/>
<path d="M67.4411 76.7396C64.9539 77.1081 62.4286 77.1429 59.9323 76.8429C58.7242 76.444 57.9584 75.0417 58.5299 72.9811C58.6257 72.5909 58.8523 72.2453 59.172 72.0019C59.4917 71.7586 59.8851 71.6322 60.2867 71.6438C62.6514 71.6894 65.0095 71.9091 67.3419 72.301L67.4411 76.7396Z" fill="#080F21"/>
<path d="M68.7604 76.869C66.2736 77.2381 63.7486 77.2728 61.2526 76.9723C60.0445 76.5734 59.2787 75.1711 59.8502 73.1104C59.946 72.7203 60.1726 72.3747 60.4923 72.1313C60.812 71.888 61.2054 71.7616 61.607 71.7732C63.9718 71.8185 66.3299 72.0385 68.6622 72.4315L68.7604 76.869Z" fill="white"/>
<path d="M68.8236 76.7269C67.5932 76.923 66.3492 77.0204 65.1033 77.0183C64.5308 77.0183 63.9593 77.0025 63.3889 76.9708C62.7442 76.9905 62.0996 76.9325 61.4688 76.7982C59.8566 76.2815 59.6489 73.698 60.4736 72.4879C60.6082 72.2756 60.7978 72.1037 61.0223 71.9908C61.3044 71.9185 61.5986 71.9076 61.8852 71.9587C62.5053 71.9904 63.1253 72.0248 63.7454 72.062C64.7664 72.1261 65.7874 72.1974 66.8033 72.3163C67.1825 72.3607 67.5608 72.4134 67.94 72.4858C68.155 72.5271 68.2501 72.4754 68.2976 72.6418C68.355 73.0673 68.3644 73.4978 68.3255 73.9253L68.3927 76.9667C68.3927 77.0959 69.146 76.9822 69.1409 76.7662L69.0437 72.3328C69.0378 72.3196 69.0285 72.3082 69.0167 72.2998C69.0048 72.2915 68.991 72.2864 68.9765 72.2853C67.6521 72.0068 66.306 71.844 64.9534 71.7986C64.0378 71.7355 63.1212 71.6849 62.2056 71.6374C61.5516 71.5601 60.8904 71.701 60.3248 72.0383C59.8352 72.4776 59.4904 73.0549 59.336 73.6943C59.1815 74.3336 59.2247 75.0048 59.4598 75.6191C59.6247 76.1121 59.9434 76.5392 60.3692 76.8375C60.9963 77.153 61.6962 77.2957 62.3968 77.2508C64.5003 77.4122 66.6154 77.3317 68.7006 77.0111C68.9889 76.9594 69.3506 76.6412 68.8236 76.7269Z" fill="#080F21"/>
<path d="M72.5375 76.2C72.2574 76.3292 71.9763 76.4583 71.6963 76.5772C71.5432 76.6427 71.3742 76.6614 71.2106 76.6309C71.1072 76.5875 71.0039 76.5452 70.9005 76.5121C70.6576 76.4316 70.4015 76.3986 70.1461 76.415L70.0273 76.4263C69.6951 76.434 69.3741 76.5473 69.1106 76.7498C69.0648 76.7963 69.0086 76.8314 68.9467 76.8521C68.8847 76.8727 68.8187 76.8784 68.7541 76.8686C68.2374 76.8035 67.8054 75.7577 67.7724 74.5382C67.7393 73.3188 68.1506 72.3805 68.6683 72.4456C68.7541 72.4559 68.8296 72.5324 68.9381 72.5644C69.4073 72.7162 69.9169 72.6814 70.3611 72.4673C70.4045 72.4456 70.265 73.0502 70.3073 73.0502L70.5337 73.0604C70.8587 73.0835 71.1838 73.0162 71.473 72.8662C71.5488 72.825 71.6359 72.8098 71.7211 72.8228C72.2378 72.8879 72.6697 73.8562 72.6914 74.9929C72.7129 75.4012 72.6607 75.8101 72.5375 76.2Z" fill="#080F21"/>
<path d="M77.1431 73.1688C75.835 74.4884 74.2664 75.521 72.5372 76.2009C72.2571 76.33 71.976 76.4592 71.696 76.5781C71.543 76.6436 71.3739 76.6623 71.2103 76.6318C71.1016 76.6078 70.9971 76.5678 70.9002 76.513C70.7627 76.4205 70.6513 76.2942 70.5768 76.1461C70.0775 75.1953 69.9395 74.0958 70.1882 73.051C70.1906 73.0244 70.198 72.9984 70.2099 72.9745C70.3288 72.4812 70.5918 72.0344 70.9654 71.691C71.8872 71.0403 72.8785 70.4941 73.9209 70.0623C74.0271 70.0038 74.1481 69.9777 74.269 69.9873C74.3898 69.9968 74.5052 70.0416 74.6009 70.1161L77.2547 72.2522L77.3188 72.4681C77.3495 72.5904 77.3496 72.7183 77.3189 72.8405C77.2883 72.9628 77.2279 73.0755 77.1431 73.1688Z" fill="white"/>
<path d="M76.8368 73.0737C75.741 74.1805 74.4458 75.0701 73.0194 75.6955C72.6484 75.8753 72.2753 76.052 71.8992 76.2205C71.6635 76.3238 71.4403 76.4603 71.1913 76.3084C71.0068 76.1592 70.8718 75.9579 70.8037 75.7306C70.4794 74.9747 70.3758 74.1424 70.5051 73.33C70.5604 72.934 70.7046 72.5558 70.9269 72.2234C71.1492 71.8911 71.4438 71.6133 71.7886 71.411C72.4009 71.0563 73.0346 70.7398 73.6859 70.4633C73.9071 70.36 74.0828 70.1946 74.3153 70.3269C74.3937 70.3809 74.468 70.4407 74.5375 70.5057L75.4975 71.2787L76.6467 72.2025C76.7428 72.2811 76.8472 72.3545 76.9391 72.4382C76.9453 72.4444 76.9536 72.4485 76.9588 72.4547C76.811 72.2966 76.9195 72.4124 76.9216 72.4919C76.9288 72.7193 76.9991 72.864 76.8368 73.0737C76.5526 73.4427 77.2636 73.514 77.4569 73.2649C77.6239 73.0916 77.7172 72.8602 77.7172 72.6195C77.7172 72.3788 77.6239 72.1475 77.4569 71.9741C77.0921 71.6776 76.7242 71.3851 76.3583 71.0906L75.1389 70.1088C74.9704 69.9351 74.7532 69.8165 74.516 69.7687C74.2787 69.7209 74.0325 69.7462 73.8099 69.8412C73.0628 70.1629 72.3322 70.5219 71.6212 70.917C71.212 71.1142 70.846 71.3907 70.5444 71.7304C70.2428 72.0701 70.0117 72.4663 69.8644 72.896C69.5986 73.8235 69.6348 74.8116 69.9677 75.7172C70.0677 76.1303 70.3117 76.4942 70.6559 76.7434C70.8619 76.844 71.0886 76.8949 71.3178 76.892C71.5469 76.8891 71.7723 76.8326 71.9756 76.7269C74.0237 75.9694 75.8898 74.7899 77.4527 73.2649C77.77 72.9301 77.0487 72.8474 76.8368 73.0737Z" fill="#080F21"/>
<path d="M79.0888 70.634C79.0317 70.6893 78.96 70.727 78.8821 70.7426C78.4172 70.8696 78.0029 71.137 77.6957 71.5083L77.6306 71.5941C77.4266 71.8397 77.2991 72.1397 77.2638 72.457C77.2609 72.5824 77.2107 72.702 77.1232 72.7918C76.7564 73.1267 75.8077 72.7815 75.0088 72.0261C74.21 71.2707 73.8556 70.3974 74.2214 70.0626C74.2938 70.0044 74.3787 69.9637 74.4694 69.9437C74.9208 69.8408 75.3306 69.6042 75.6454 69.2648L75.7963 69.1025C76.0182 68.8818 76.1782 68.6067 76.2603 68.3047C76.2793 68.2232 76.3252 68.1504 76.3905 68.098C76.7564 67.7642 77.6523 68.066 78.3964 68.7666C79.1405 69.4673 79.4505 70.3002 79.0888 70.634Z" fill="#080F21"/>
<path d="M80.8245 67.4736C80.6178 68.1101 80.4111 68.7136 80.1993 69.2531C79.541 70.8931 77.7935 71.7664 76.7043 70.9903C76.3162 70.7123 75.9684 70.3819 75.6709 70.0085C75.5363 69.7907 75.4622 69.541 75.4564 69.285C75.4506 69.029 75.5132 68.7761 75.6378 68.5525C75.8842 68.0025 76.2074 67.4903 76.5978 67.0313L77.5909 65.8666C77.8476 65.5117 78.1998 65.2371 78.6065 65.0746C79.0132 64.9122 79.4577 64.8686 79.8882 64.9489C80.7925 65.2083 81.1914 66.2975 80.8245 67.4736Z" fill="white"/>
<path d="M80.4702 67.4287C80.094 68.5934 79.7747 69.9482 78.6906 70.6664C78.336 70.9254 77.8948 71.0365 77.4598 70.9764C76.9174 70.7886 76.4476 70.4355 76.1164 69.9668C75.611 69.3746 75.9273 68.673 76.2631 68.0767C76.4935 67.6835 76.7613 67.3135 77.063 66.9719C77.4992 66.3204 78.0614 65.7628 78.7165 65.3319C78.9538 65.1953 79.2302 65.1425 79.5012 65.1819C79.7722 65.2212 80.0221 65.3505 80.2108 65.549C80.4032 65.818 80.5271 66.13 80.5715 66.4577C80.616 66.7855 80.5798 67.1192 80.466 67.4298C80.3431 67.8432 81.0861 67.8431 81.1832 67.5207C81.3033 67.1869 81.3546 66.8322 81.334 66.4781C81.3134 66.124 81.2213 65.7777 81.0633 65.4601C80.8987 65.1861 80.6625 64.9621 80.3801 64.8124C80.0976 64.6627 79.7797 64.593 79.4605 64.6106C78.9003 64.6902 78.3645 64.8922 77.8911 65.202C77.4176 65.5119 77.0181 65.9221 76.7209 66.4036C76.4048 66.7546 76.1094 67.1238 75.8363 67.5093C75.5596 67.82 75.3542 68.1875 75.2346 68.586C75.115 68.9844 75.0841 69.4042 75.1439 69.8159C75.293 70.1651 75.525 70.4726 75.8198 70.7119C76.0656 70.9653 76.3477 71.1809 76.6569 71.3516C77.1904 71.5979 77.7992 71.6253 78.3527 71.4281C79.0586 71.1872 79.6705 70.7297 80.1012 70.1208C80.5921 69.3142 80.957 68.4374 81.1832 67.5207C81.3207 67.1052 80.5745 67.1063 80.4702 67.4287Z" fill="#080F21"/>
<path d="M58.8995 75.52L58.2732 75.7267C57.9913 75.8175 57.6943 75.8518 57.3992 75.8278C57.1041 75.8037 56.8166 75.7217 56.5531 75.5865C56.2897 75.4513 56.0555 75.2654 55.8639 75.0397C55.6723 74.8139 55.527 74.5526 55.4365 74.2706L54.9404 72.7391L58.0148 71.8545L58.8995 75.52Z" fill="#080F21"/>
<path d="M66.5379 68.2793L66.107 68.4188L60.9399 70.0723L56.7112 71.4157L56.4632 72.6352C56.3857 73.0165 56.2206 73.3747 55.9808 73.6812C55.741 73.9877 55.4332 74.2342 55.0817 74.4011C54.7301 74.5681 54.3446 74.6509 53.9555 74.643C53.5664 74.6352 53.1845 74.5369 52.84 74.3558L48.1266 71.8756L38.029 66.568C37.0558 66.0517 36.2679 65.2447 35.7752 64.2593C35.3243 63.3453 35.1502 62.3195 35.2743 61.3079C35.3984 60.2963 35.8153 59.343 36.4738 58.5651L37.564 57.2703C37.8964 56.8801 38.3471 56.6091 38.8475 56.4983C39.1776 56.4326 39.4879 56.2911 39.7538 56.0849L40.4328 55.5682L44.4135 52.5909C45.5905 51.8809 46.9158 51.453 48.2858 51.3408C49.6557 51.2285 51.033 51.435 52.3098 51.944C52.5448 52.0378 52.7722 52.1498 52.9898 52.2788C54.069 52.8684 54.9634 53.746 55.5734 54.8138C55.9536 55.4726 56.2199 56.191 56.3608 56.9385C56.5262 57.8589 56.8279 58.7495 57.2558 59.581L57.4821 60.0016C57.5255 60.0781 57.5689 60.1421 57.6123 60.2176C57.6557 60.293 57.6877 60.3478 57.7301 60.4118V60.4232C58.2386 61.2045 58.8602 61.9059 59.5748 62.5045L64.3864 66.5349L66.3499 68.1749L66.5379 68.2793Z" fill="white"/>
<path d="M54.0053 75.0348C53.5347 75.0339 53.0715 74.9183 52.6557 74.6979L37.8447 66.91C36.799 66.3559 35.9528 65.4887 35.4245 64.4298C34.9399 63.4473 34.753 62.3446 34.8868 61.2573C35.0207 60.17 35.4694 59.1455 36.1778 58.3099L37.266 57.0171C37.6551 56.5645 38.1806 56.2504 38.7634 56.1221C39.0378 56.0686 39.296 55.9522 39.5178 55.7821L44.1796 52.285C45.412 51.536 46.8016 51.0835 48.2388 50.9631C49.676 50.8428 51.1215 51.058 52.4614 51.5916C52.7114 51.6928 52.9532 51.813 53.1848 51.9512C54.3243 52.5726 55.2682 53.4991 55.9109 54.6268C56.3111 55.3223 56.5906 56.0805 56.7377 56.8693C56.8972 57.754 57.1873 58.6101 57.5985 59.4094L58.0728 60.2486C58.557 60.9844 59.1456 61.6458 59.8203 62.2121L66.7112 67.9383L67.5183 68.3661L57.0363 71.7206L56.8296 72.7168C56.695 73.3699 56.3396 73.9569 55.8232 74.3788C55.3068 74.8008 54.6608 75.032 53.9939 75.0337L54.0053 75.0348ZM49.1038 51.698C47.522 51.7081 45.9706 52.134 44.6053 52.933L39.987 56.4001C39.6735 56.6417 39.308 56.8069 38.9195 56.8827C38.5057 56.9756 38.1329 57.1992 37.8561 57.5204L36.7689 58.8121C36.1591 59.5318 35.7726 60.414 35.6569 61.3502C35.5413 62.2865 35.7015 63.2361 36.1179 64.0826C36.5744 64.9966 37.3054 65.7449 38.2085 66.2228L53.0174 74.0096C53.3081 74.1631 53.6306 74.2468 53.9593 74.2541C54.2881 74.2614 54.614 74.1922 54.9113 74.0518C55.2086 73.9115 55.4692 73.7038 55.6725 73.4454C55.8758 73.187 56.0161 72.8848 56.0825 72.5628L56.376 71.1212L65.7077 68.1429L59.3295 62.8084C58.5861 62.1838 57.9394 61.4524 57.4104 60.6382L56.9185 59.768C56.4715 58.8995 56.1563 57.9691 55.9833 57.0077C55.8503 56.3055 55.5994 55.6308 55.2413 55.0122C54.6661 54.0035 53.8207 53.1752 52.8003 52.6209C52.5962 52.4992 52.3831 52.3936 52.1627 52.3047C51.1943 51.8988 50.1539 51.6924 49.1038 51.698Z" fill="#080F21"/>
<path d="M55.4053 51.7459C58.6946 51.5185 61.0891 51.6053 61.3164 52.4362L62.0936 57.6457C62.1793 58.4228 60.6695 59.3508 58.1986 60.3749L55.4053 51.7459Z" fill="white"/>
<path d="M55.3424 52.0664C56.9145 51.8541 58.5096 51.8785 60.0744 52.1388C60.338 52.2028 60.6945 52.2948 60.7978 52.579C60.846 52.7763 60.876 52.9776 60.8877 53.1804L61.3104 56.0192L61.4964 57.2676C61.537 57.4415 61.5633 57.6185 61.575 57.7967C61.5657 58.2597 60.9807 58.608 60.6449 58.8301C59.7999 59.3431 58.9111 59.7802 57.989 60.1364L58.7279 60.2397L56.2849 52.6957L55.9346 51.6127C55.8044 51.2107 54.7596 51.5022 54.8867 51.8938L57.3297 59.4378L57.68 60.5208C57.7709 60.7998 58.236 60.7027 58.4189 60.6242C59.332 60.2598 60.2178 59.8304 61.0696 59.3396C61.6255 59.0572 62.1054 58.6454 62.4689 58.1388C62.7851 57.6024 62.5247 56.8522 62.4399 56.2786L61.9584 53.0461C61.9374 52.7959 61.9001 52.5473 61.8467 52.302C61.7783 52.1367 61.6717 51.9899 61.5358 51.8735C61.3998 51.7572 61.2383 51.6745 61.0644 51.6323C60.3469 51.411 59.5985 51.3063 58.8478 51.3223C57.7234 51.2913 56.596 51.3513 55.4737 51.4257C55.2804 51.4391 54.9115 51.5714 54.8846 51.8029C54.8515 52.0561 55.1709 52.0778 55.3424 52.0664Z" fill="#080F21"/>
<path d="M63.8184 51.8322C63.2356 51.1088 68.1588 50.6778 68.2735 51.2927L69.2439 55.1763C69.4919 55.7964 64.7888 57.2256 64.7785 56.7192L63.8184 51.8322Z" fill="white"/>
<path d="M64.3036 51.6154C64.2767 51.5803 64.3036 51.6092 64.3036 51.6557C64.3036 51.6226 64.3253 51.5844 64.2839 51.6847C64.2994 51.6475 64.3366 51.6268 64.256 51.7115C64.3263 51.6382 64.1589 51.7839 64.2788 51.6929C64.3552 51.634 64.1599 51.7457 64.255 51.7054C64.2922 51.6899 64.3294 51.6733 64.3656 51.6557C64.4018 51.6381 64.5092 51.6092 64.3563 51.6557C64.3914 51.6443 64.4255 51.632 64.4596 51.6217C64.5237 51.602 64.5867 51.5855 64.6508 51.5689C64.7345 51.5472 64.8193 51.5296 64.904 51.511C64.9226 51.511 65.0724 51.478 64.9422 51.5017L65.1303 51.4697C65.5309 51.4065 65.9344 51.3644 66.3394 51.3436C66.5864 51.3312 66.6133 51.3302 66.8406 51.3333C67.0256 51.3333 67.2106 51.3426 67.3945 51.3622C67.4266 51.3622 67.6157 51.3933 67.4896 51.3716C67.5506 51.3819 67.6105 51.3963 67.6705 51.4108C67.6963 51.417 67.7211 51.4263 67.7469 51.4346C67.8058 51.4532 67.6973 51.4501 67.7335 51.4346C67.7521 51.442 67.7695 51.4521 67.7852 51.4645C67.6818 51.3343 67.7686 51.4645 67.7717 51.4645C67.7748 51.4645 67.7428 51.3778 67.7562 51.447C67.7562 51.4635 67.7645 51.48 67.7686 51.4966C67.7893 51.5999 67.8193 51.7032 67.8451 51.8066L68.4248 54.1277L68.6636 55.0794C68.6764 55.1552 68.6951 55.2298 68.7194 55.3026C68.7194 55.3099 68.7194 55.3182 68.7245 55.3254C68.7338 55.3585 68.7442 55.2778 68.7421 55.284C68.7318 55.3119 68.6791 55.3636 68.7638 55.2644C68.7506 55.2826 68.7353 55.2993 68.7183 55.3141C68.6295 55.3719 68.7948 55.2727 68.6615 55.3606L68.49 55.4701C68.4693 55.4825 68.3577 55.5414 68.4745 55.4804L68.3711 55.5362C68.2078 55.6189 68.0404 55.6933 67.872 55.7625C67.779 55.8018 67.686 55.838 67.5929 55.8742L67.4483 55.9289C67.4307 55.9351 67.2354 56.0054 67.3377 55.9692C66.945 56.1067 66.5451 56.2276 66.141 56.3299C65.9632 56.3754 65.7845 56.4167 65.6036 56.4518C65.7514 56.4229 65.5468 56.4612 65.5096 56.4663C65.43 56.4787 65.3504 56.4859 65.2698 56.4952C65.1003 56.5138 65.3215 56.5086 65.2099 56.4952C65.0642 56.4807 65.2791 56.5241 65.1902 56.4952C65.1696 56.488 65.3494 56.5479 65.3153 56.6048C65.3153 56.6048 65.3091 56.5769 65.3091 56.5686C65.287 56.386 65.2525 56.2051 65.2057 56.0271L64.3552 51.6971C64.2736 51.2837 63.2185 51.5441 63.3074 51.9782L64.1434 56.2358C64.1827 56.4374 64.2064 56.6492 64.2643 56.8497C64.3366 57.1008 64.6043 57.1597 64.8379 57.1659C65.6841 57.1399 66.5191 56.965 67.3046 56.6492C67.7575 56.5025 68.2015 56.33 68.6346 56.1325C68.9867 55.992 69.3107 55.7897 69.5916 55.5352C69.6693 55.4682 69.7268 55.3809 69.7577 55.2831C69.7885 55.1852 69.7915 55.0807 69.7662 54.9813C69.7032 54.694 69.6236 54.4098 69.5523 54.1246L68.9137 51.5699C68.8917 51.3858 68.8382 51.2069 68.7555 51.0409C68.5331 50.8329 68.2405 50.7162 67.936 50.7143C67.0754 50.6177 66.2054 50.6449 65.3525 50.7949C64.9011 50.8525 64.4568 50.9564 64.0266 51.1049C63.7497 51.2083 63.3818 51.3736 63.2774 51.6764C63.2548 51.739 63.2491 51.8064 63.2609 51.8719C63.2727 51.9374 63.3015 51.9987 63.3446 52.0494C63.5874 52.376 64.5909 51.9967 64.3036 51.6154Z" fill="#080F21"/>
<path d="M64.8209 56.7198C64.7472 56.7302 64.6721 56.7187 64.6049 56.6868C64.3923 56.5844 64.1606 56.5277 63.9247 56.5204C63.6889 56.5131 63.4541 56.5553 63.2356 56.6444L63.1385 56.6868C62.8205 56.8237 62.5608 57.068 62.4047 57.377C62.3809 57.4418 62.3421 57.5 62.2914 57.5469C62.2408 57.5938 62.1797 57.628 62.1133 57.6468C61.639 57.7439 61.0344 56.633 60.743 55.1769C60.4516 53.7208 60.6035 52.4693 61.0778 52.3722C61.123 52.362 61.1699 52.3627 61.2148 52.374C61.2596 52.3853 61.3012 52.4069 61.3362 52.4373C61.5338 52.5512 61.7535 52.6217 61.9805 52.644C62.2076 52.6662 62.4368 52.6398 62.6528 52.5664L62.8595 52.5013C63.1715 52.402 63.4461 52.2103 63.6469 51.9516C63.7016 51.8824 63.7775 51.833 63.8629 51.811C64.3372 51.7139 64.9304 52.7411 65.1898 54.0846C65.4564 55.457 65.2849 56.6227 64.8209 56.7198Z" fill="#080F21"/>
<path d="M58.2011 60.3762C58.0555 60.4293 57.8965 60.4334 57.7485 60.3876C57.6617 60.2585 57.5759 60.1179 57.5004 59.9887C56.9479 59.0418 56.5679 58.0044 56.3781 56.9246C56.2424 56.1757 55.9758 55.4564 55.5907 54.7999C54.9752 53.7364 54.0821 52.8601 53.0071 52.2649C52.7871 52.1404 52.56 52.0286 52.3271 51.9301C52.6943 51.7627 53.0827 51.6466 53.4815 51.585C54.117 51.439 54.782 51.4922 55.3862 51.7374C55.9904 51.9826 56.5045 52.4078 56.8587 52.9553C57.3006 53.6807 57.6726 54.4464 57.9696 55.2422C58.9462 57.7338 59.0537 60.0311 58.2011 60.3762Z" fill="#080F21"/>
<path d="M61.8155 55.2592L64.3618 54.665C64.4475 54.6449 64.5217 54.5916 64.5682 54.5168C64.6147 54.4421 64.6297 54.3519 64.6098 54.2661L64.5561 54.0181C64.5355 53.9325 64.4819 53.8584 64.4071 53.812C64.3322 53.7656 64.2421 53.7505 64.1562 53.7701L61.6109 54.3633C61.5253 54.3837 61.4513 54.437 61.4048 54.5117C61.3584 54.5864 61.3433 54.6764 61.3628 54.7621L61.4166 55.0102C61.4258 55.0531 61.4436 55.0937 61.4688 55.1296C61.494 55.1654 61.5261 55.1959 61.5633 55.2191C61.6005 55.2423 61.642 55.2579 61.6853 55.2648C61.7287 55.2717 61.7729 55.2698 61.8155 55.2592Z" fill="#DDDEDF"/>
<path opacity="0.2" d="M66.3788 68.1542C66.2941 68.2489 66.2041 68.3386 66.1091 68.4229C64.9457 69.5216 63.4051 70.1319 61.8049 70.128C61.516 70.1284 61.2275 70.1066 60.942 70.0629C59.8023 69.905 58.7282 69.4356 57.8381 68.7065C56.948 67.9774 56.2764 67.0168 55.8972 65.9305C55.5179 64.8441 55.4459 63.6742 55.6889 62.5495C55.9319 61.4248 56.4805 60.389 57.2744 59.5562L57.5007 59.9767C57.5441 60.0522 57.5865 60.1173 57.6299 60.1927C57.6733 60.2681 57.7053 60.3219 57.7487 60.387V60.3973C58.2572 61.1789 58.8788 61.8807 59.5934 62.4797L64.4039 66.5101L66.3788 68.1542Z" fill="url(#paint0_linear_1387_20079)"/>
<path d="M58.6416 67.6587C56.9947 67.684 55.3613 67.9608 53.798 68.4792C53.4875 68.5735 53.1983 68.7272 52.9464 68.9319C52.5862 69.2804 52.3307 69.7227 52.2087 70.2089C52.0867 70.695 52.1032 71.2055 52.2561 71.6828C52.2878 71.8507 52.3498 72.0115 52.439 72.1572C52.5852 72.4034 52.7998 72.6017 53.0567 72.7281C53.3135 72.8545 53.6016 72.9035 53.8858 72.8692C56.207 72.595 58.4858 72.0373 60.6712 71.2085C61.1809 71.0168 61.5952 70.6333 61.8256 70.1399L58.6416 67.6587Z" fill="#3A1E44"/>
<path d="M65.4292 72.8136C63.3777 73.9898 61.1847 74.8996 58.9031 75.5212C57.7054 75.6183 56.5841 74.7234 56.4116 72.8343C56.3745 72.4663 56.463 72.0965 56.6626 71.7851C56.8622 71.4736 57.1612 71.2388 57.5111 71.1188C59.5914 70.3271 61.7257 69.6854 63.8976 69.1987L65.4292 72.8136Z" fill="#080F21"/>
<path d="M66.6185 72.4571C64.5671 73.6333 62.374 74.5432 60.0925 75.1647C58.8948 75.2618 57.7735 74.3669 57.6009 72.4778C57.5641 72.1099 57.6527 71.7404 57.8523 71.4292C58.0519 71.118 58.3508 70.8833 58.7005 70.7633C60.7806 69.9712 62.9149 69.3296 65.087 68.8433L66.6185 72.4571Z" fill="white"/>
<path d="M66.4467 72.2227C65.2482 72.9227 63.993 73.5207 62.6943 74.0104C62.0195 74.2667 61.3343 74.4951 60.644 74.707C60.4198 74.8082 60.1764 74.8597 59.9305 74.8581C59.6845 74.8565 59.4418 74.8018 59.2189 74.6977C58.782 74.4138 58.4348 74.0116 58.2177 73.5378C58.0007 73.0641 57.9229 72.5384 57.9933 72.0221C58.1266 71.2698 58.7167 71.0538 59.3584 70.8327C60.056 70.5929 60.7536 70.3552 61.4542 70.1269C62.6247 69.6952 63.8295 69.3626 65.0557 69.1327L64.7105 68.9446L66.242 72.5616C66.3898 72.9088 67.1339 72.698 66.9913 72.3601L65.4587 68.7431C65.4298 68.6781 65.3804 68.6244 65.3181 68.5902C65.2557 68.5561 65.1838 68.5433 65.1135 68.554C63.8187 68.7897 62.5458 69.1336 61.3085 69.5822C60.4673 69.8578 59.6292 70.1413 58.7942 70.4327C58.4893 70.5146 58.2051 70.6602 57.9606 70.8599C57.716 71.0595 57.5165 71.3088 57.3753 71.5912C57.1937 72.162 57.1792 72.7728 57.3334 73.3516C57.4875 73.9304 57.804 74.453 58.2454 74.8579C58.6204 75.1903 59.0904 75.3964 59.5889 75.4469C60.298 75.4324 60.9966 75.2724 61.6413 74.9767C63.4312 74.3979 65.1552 73.632 66.7846 72.6918C67.2217 72.4365 66.8259 72.0005 66.4467 72.2227Z" fill="#080F21"/>
<path d="M59.2728 67.5059C57.6259 67.531 55.9925 67.8077 54.4291 68.3264C54.118 68.42 53.8284 68.5738 53.5766 68.779C53.2169 69.1279 52.9617 69.5702 52.8397 70.0562C52.7178 70.5422 52.7339 71.0526 52.8862 71.53C52.9183 71.6979 52.9806 71.8587 53.0702 72.0044C53.2164 72.2505 53.431 72.4489 53.6878 72.5753C53.9447 72.7017 54.2328 72.7507 54.517 72.7164C56.8383 72.4424 59.1172 71.8844 61.3024 71.0547C61.8128 70.8648 62.2276 70.4811 62.4567 69.9871L59.2728 67.5059Z" fill="white"/>
<path d="M59.4125 67.2718C57.8585 67.2907 56.3149 67.5283 54.8272 67.9776C53.5727 68.3383 52.5289 69.0317 52.4256 70.4402C52.3398 71.6091 52.7676 72.8698 54.109 72.9545C54.8703 72.9465 55.6279 72.8479 56.366 72.6611C57.13 72.5184 57.8879 72.3462 58.6395 72.1443C59.5313 71.9015 60.4149 71.6204 61.2809 71.299C61.9401 71.0861 62.4891 70.6225 62.8093 70.0082C62.8206 69.9908 62.8281 69.9712 62.8313 69.9507C62.8345 69.9302 62.8334 69.9093 62.828 69.8892C62.8227 69.8692 62.8132 69.8505 62.8002 69.8344C62.7872 69.8182 62.7709 69.8049 62.7525 69.7954L59.5706 67.3152C59.3557 67.1478 58.6736 67.4619 58.9816 67.7017L62.1635 70.1819L62.1066 69.969C61.7243 70.7348 61.0432 70.9301 60.2775 71.1884C59.5117 71.4468 58.7129 71.6824 57.9171 71.8808C57.1503 72.072 56.3763 72.2312 55.5961 72.351C54.9006 72.4544 54.1049 72.6776 53.5758 72.0699C53.3901 71.792 53.2614 71.4801 53.1972 71.1521C53.133 70.824 53.1345 70.4865 53.2017 70.1591C53.2353 69.8317 53.3523 69.5183 53.5413 69.2488C53.7303 68.9792 53.9852 68.7625 54.2816 68.6193C55.0398 68.3209 55.8296 68.1101 56.6357 67.991C57.4591 67.8283 58.2962 67.7446 59.1355 67.741C59.2844 67.741 59.5665 67.6945 59.6274 67.5281C59.6884 67.3617 59.5758 67.2718 59.4125 67.2718Z" fill="#080F21"/>
<path d="M64.3661 67.7434C64.3097 67.8015 64.2381 67.8427 64.1594 67.8622C63.6881 68.0087 63.2737 68.2975 62.9731 68.689L62.908 68.7758C62.7077 69.0238 62.5941 69.3304 62.5845 69.649C62.5872 69.7107 62.5771 69.7723 62.5549 69.8299C62.5326 69.8875 62.4987 69.9399 62.4553 69.9839C62.0885 70.329 61.085 70.0593 60.2004 69.3638C59.3158 68.6683 58.9055 67.8323 59.2621 67.4871C59.3305 67.4208 59.4166 67.3756 59.5101 67.3569C59.9698 67.2304 60.3824 66.9716 60.6964 66.6128L60.8473 66.4516C61.0581 66.2173 61.2097 65.9359 61.2896 65.631C61.3118 65.5511 61.3525 65.4775 61.4085 65.4162C61.7753 65.071 62.725 65.2973 63.5445 65.9442C64.364 66.5911 64.733 67.3982 64.3661 67.7434Z" fill="#080F21"/>
<path d="M66.0739 62.2416C66.018 64.1764 65.4726 66.0654 64.4886 67.7322C64.3507 67.9348 64.1699 68.1047 63.9591 68.2296C63.7482 68.3546 63.5124 68.4317 63.2684 68.4554C63.0244 68.479 62.7782 68.4488 62.5473 68.3666C62.3163 68.2845 62.1062 68.1526 61.932 67.9802L61.501 67.5596C61.2697 67.3331 61.1066 67.0463 61.0303 66.7317C60.9539 66.4171 60.9673 66.0874 61.0691 65.78C61.5125 64.448 62.0907 63.1648 62.7949 61.9502L66.0739 62.2416Z" fill="white"/>
<path d="M65.7017 62.2922C65.6331 64.1303 65.1416 65.9279 64.2652 67.5451C64.1829 67.7154 64.0653 67.8663 63.9203 67.9878C63.7753 68.1093 63.6062 68.1986 63.424 68.2498C63.2146 68.2733 63.0025 68.2482 62.8043 68.1765C62.6061 68.1048 62.4271 67.9885 62.2811 67.8365C62.1023 67.6681 61.9152 67.4986 61.754 67.3136C61.5812 67.1102 61.4601 66.8678 61.4013 66.6074C61.3424 66.347 61.3475 66.0762 61.4161 65.8182C61.8256 64.4609 62.4059 63.1612 63.1429 61.9502L62.5642 62.1423L65.8433 62.4337C65.9364 62.4463 66.0312 62.4403 66.122 62.416C66.2128 62.3917 66.2979 62.3496 66.3724 62.2922C66.4757 62.1982 66.4757 62.0628 66.3073 62.0473L63.0282 61.7558C62.8598 61.7414 62.5467 61.7775 62.4495 61.9491C61.7407 63.1623 61.1589 64.4454 60.7134 65.7779C60.6208 66.0483 60.5913 66.3363 60.6271 66.6199C60.6629 66.9034 60.7631 67.175 60.9201 67.4138C61.1156 67.6745 61.3399 67.9123 61.5887 68.1227C61.9688 68.4501 62.4489 68.6386 62.9502 68.6574C63.4515 68.6761 63.9443 68.5241 64.3479 68.2261C64.9813 67.6545 65.4381 66.9137 65.6645 66.091C66.0918 64.8287 66.3568 63.5171 66.453 62.1878C66.4747 61.9119 65.7244 62.0566 65.7017 62.2922Z" fill="#080F21"/>
<path d="M70.4243 50.679C70.1866 50.0971 71.8163 49.8057 74.405 50.1075C74.7411 50.1459 75.0578 50.2848 75.3137 50.5061C75.5696 50.7273 75.7528 51.0205 75.8394 51.3475C75.9246 51.6614 75.9192 51.993 75.8237 52.304C75.7282 52.6149 75.5466 52.8924 75.3 53.1044C73.0461 54.9811 71.5032 55.1536 71.2231 54.733L70.4243 50.679Z" fill="white"/>
<path d="M70.9473 50.5381C70.9277 50.4844 70.908 50.4833 70.9308 50.4998C70.9225 50.5474 70.9535 50.5164 70.9308 50.4998C70.939 50.4523 70.9132 50.5598 70.9173 50.5526C70.9556 50.4906 70.8595 50.6456 70.9173 50.5629C70.9421 50.5257 70.875 50.6053 70.875 50.6053C70.9039 50.5877 70.9514 50.5712 70.8905 50.5898C70.8098 50.6146 70.9308 50.5733 70.9535 50.5619C71.0351 50.5216 70.8615 50.5846 70.9886 50.5495C71.1157 50.5143 71.2242 50.4854 71.3462 50.4637C71.2584 50.4792 71.4371 50.4513 71.4609 50.4482C71.5343 50.4389 71.6077 50.4317 71.6821 50.4255C71.8598 50.41 72.0386 50.4007 72.2163 50.3965C72.6194 50.3872 73.0214 50.3965 73.4234 50.4317C73.8404 50.4207 74.2556 50.4909 74.6459 50.6384C74.9308 50.7932 75.1508 51.0451 75.2659 51.3483C75.3342 51.527 75.3663 51.7175 75.3605 51.9087C75.3546 52.1 75.3109 52.2881 75.2318 52.4624C75.0224 52.8067 74.7305 53.0933 74.3824 53.2963C74.0515 53.5485 73.7038 53.7778 73.3417 53.9825C73.1957 54.0631 73.0475 54.1392 72.8974 54.2109C72.8384 54.2388 72.7785 54.2646 72.7186 54.2905C72.6586 54.3163 72.547 54.3607 72.547 54.3607C72.4437 54.4 72.329 54.4341 72.2174 54.4641C72.1564 54.4806 72.0944 54.493 72.0334 54.5064C71.9456 54.525 72.114 54.5064 71.9673 54.5147L71.835 54.524C71.7916 54.524 71.6759 54.5065 71.8185 54.524C71.7888 54.5162 71.7582 54.5127 71.7275 54.5137C71.7203 54.5137 71.6841 54.5054 71.6728 54.5033C71.7007 54.5033 71.7844 54.5312 71.7089 54.5033C71.6335 54.4754 71.6655 54.4455 71.7193 54.5147C71.7069 54.4992 71.6511 54.4393 71.6955 54.5023C71.7017 54.5116 71.7327 54.6305 71.7379 54.5623C71.7288 54.457 71.7084 54.3531 71.6769 54.2522L71.4268 52.9863L70.9452 50.5371C70.8419 50.0203 69.794 50.2953 69.8973 50.8182L70.3996 53.3697L70.6652 54.7193C70.7002 54.8778 70.7857 55.0206 70.9089 55.1263C71.0321 55.2319 71.1863 55.2948 71.3483 55.3053C71.9432 55.365 72.543 55.2576 73.0803 54.9953C73.9358 54.6249 74.7327 54.1316 75.4458 53.5309C75.861 53.2364 76.1728 52.8183 76.3366 52.3363C76.4719 51.9026 76.4571 51.4361 76.2945 51.0119C76.132 50.5877 75.8311 50.2307 75.4406 49.9986C74.9829 49.7704 74.4794 49.6488 73.968 49.6432C72.9751 49.5179 71.9688 49.5461 70.9845 49.7269C70.5226 49.8302 69.6659 50.1878 69.8973 50.8182C70.0823 51.3194 71.1271 51.029 70.9473 50.5381Z" fill="#080F21"/>
<path d="M71.2156 54.7238C71.1535 54.7319 71.0903 54.7244 71.0317 54.7021C70.8553 54.6164 70.6628 54.5692 70.4669 54.5635C70.2709 54.5578 70.076 54.5938 69.8949 54.669L69.8092 54.7124C69.5478 54.8276 69.3343 55.0295 69.2046 55.2839C69.1395 55.4027 69.0641 55.4906 68.9669 55.4999C68.5794 55.5754 68.072 54.6587 67.8302 53.4609C67.5883 52.2632 67.7113 51.2174 68.0999 51.1419C68.1376 51.136 68.1762 51.1377 68.2133 51.147C68.2504 51.1562 68.2853 51.1727 68.3159 51.1957C68.4805 51.2869 68.6623 51.3432 68.8497 51.361C69.0371 51.3788 69.2262 51.3577 69.4051 51.2991L69.5777 51.2442C69.8373 51.1623 70.0665 51.0047 70.236 50.7916C70.2781 50.7363 70.3399 50.6993 70.4085 50.6883C70.7971 50.6129 71.2931 51.454 71.5091 52.5753C71.7468 53.6769 71.6032 54.6483 71.2156 54.7238Z" fill="#080F21"/>
<path d="M69.6916 70.5802C69.4849 70.7869 69.2917 70.9936 69.0767 71.1848C68.9604 71.2919 68.8178 71.3661 68.6633 71.3998C68.5599 71.3978 68.4564 71.4016 68.3533 71.4111C68.1139 71.429 67.8798 71.491 67.663 71.5941L67.5658 71.6374C67.2766 71.7537 67.034 71.9622 66.8755 72.2307C66.8494 72.2855 66.8117 72.3341 66.7652 72.3731C66.7187 72.4121 66.6643 72.4407 66.6058 72.457C66.1315 72.5872 65.4091 71.8752 64.9885 70.8821C64.5679 69.8889 64.5999 68.9733 65.0743 68.8441C65.1632 68.8208 65.2571 68.8244 65.344 68.8545C65.5825 68.8698 65.8208 68.822 66.0349 68.7159C66.249 68.6097 66.4313 68.449 66.5634 68.2499C66.5841 68.2178 66.6606 68.7893 66.7029 68.779L66.9096 68.7139C67.1981 68.6189 67.4577 68.4521 67.664 68.2292C67.7161 68.1657 67.7896 68.1234 67.8707 68.1104C68.345 67.9802 69.0457 68.6271 69.4343 69.5572C69.5839 69.8789 69.6712 70.226 69.6916 70.5802Z" fill="#080F21"/>
<path d="M72.7453 66.1033C72.0195 67.7783 70.9838 69.301 69.6926 70.5914C69.4859 70.7981 69.2926 71.0048 69.0777 71.1949C68.9617 71.3027 68.819 71.3773 68.6643 71.4109C68.5621 71.4304 68.4575 71.4339 68.3543 71.4212C68.1998 71.4004 68.0555 71.3326 67.9409 71.227C67.1948 70.6256 66.708 69.7607 66.5809 68.8108C66.5809 68.7891 66.5706 68.7674 66.5706 68.7354C66.507 68.2827 66.5903 67.8216 66.8083 67.4198C67.214 66.6115 67.7098 65.8516 68.2861 65.1545C68.3609 65.0689 68.4578 65.0055 68.5663 64.9712C68.6747 64.9369 68.7905 64.9332 68.901 64.9603L72.5252 65.2941L72.6543 65.4564C72.7282 65.545 72.7758 65.6525 72.7919 65.7668C72.808 65.8811 72.7918 65.9976 72.7453 66.1033Z" fill="white"/>
<path d="M72.3969 66.085C71.7974 67.4856 70.9705 68.7776 69.9497 69.9086C69.6997 70.1918 69.4403 70.4656 69.1736 70.7354C69.0454 70.8912 68.8978 71.0302 68.7344 71.1488C68.5391 71.2583 68.3738 71.1425 68.2177 71.0154C67.708 70.5882 67.3272 70.0274 67.1182 69.396C66.9999 69.0615 66.936 68.7102 66.9291 68.3554C66.9525 67.9341 67.0831 67.5258 67.3083 67.169C67.6306 66.4968 68.0422 65.8711 68.5319 65.3089C68.5665 65.2642 68.6133 65.2306 68.6668 65.2122C68.7202 65.1938 68.7779 65.1915 68.8326 65.2055C68.9494 65.2179 69.0651 65.2262 69.1819 65.2376L70.2887 65.3409L72.3876 65.5341L72.1809 65.4556C72.2775 65.5404 72.3467 65.652 72.3798 65.7762C72.413 65.9003 72.4085 66.0315 72.3669 66.1532C72.2636 66.4311 73.0221 66.3413 73.1182 66.0705C73.1734 65.914 73.1809 65.7445 73.1397 65.5837C73.0984 65.4229 73.0104 65.278 72.8867 65.1673C72.7911 65.0954 72.6735 65.0589 72.554 65.064C72.1571 65.0257 71.7582 64.9906 71.3614 64.9544C70.544 64.879 69.7162 64.757 68.8967 64.725C68.0193 64.6909 67.5057 65.6489 67.1006 66.2927C66.4905 67.0301 66.1731 67.9663 66.2088 68.9227C66.3999 70.2238 67.794 72.6152 69.3431 71.3141C70.1493 70.5988 70.8718 69.7945 71.4968 68.9165C72.1411 68.058 72.6776 67.1237 73.0944 66.1345C73.2474 65.7677 72.5013 65.8338 72.3969 66.085Z" fill="#080F21"/>
<path d="M66.4034 59.8579C66.3901 59.922 66.3601 59.9815 66.3166 60.0305C66.0623 60.3408 65.9081 60.7209 65.8743 61.1207L65.864 61.2065C65.8351 61.4655 65.8917 61.7268 66.0252 61.9506C66.0559 61.9919 66.0776 62.0392 66.0888 62.0894C66.1001 62.1396 66.1006 62.1916 66.0903 62.242C65.9932 62.6409 65.184 62.8899 64.2777 62.8135C63.3714 62.737 62.7141 62.3392 62.8113 61.9403C62.8289 61.8646 62.8701 61.7966 62.9291 61.746C63.1916 61.4585 63.3609 61.0982 63.4148 60.7126L63.4468 60.5399C63.4867 60.2866 63.4647 60.0275 63.3828 59.7845C63.3624 59.7176 63.3585 59.6467 63.3714 59.5779C63.4685 59.179 64.224 58.9195 65.0652 58.995C65.9064 59.0704 66.4995 59.459 66.4034 59.8579Z" fill="#080F21"/>
<path d="M72.8881 62.6519C72.8762 62.7215 72.8425 62.7855 72.792 62.8348C72.5134 63.1812 72.3408 63.6007 72.2949 64.0429L72.2846 64.14C72.2585 64.4246 72.3186 64.7105 72.4571 64.9605C72.4914 65.0062 72.515 65.059 72.5263 65.115C72.5375 65.1709 72.5362 65.2286 72.5222 65.284C72.4137 65.7263 71.5188 66.0074 70.5153 65.9206C69.5119 65.8338 68.7895 65.3915 68.8867 64.9492C68.9105 64.8676 68.955 64.7936 69.0159 64.7342C69.3007 64.4119 69.4878 64.0151 69.5553 63.5902L69.5873 63.396C69.6376 63.1195 69.6155 62.8347 69.5233 62.5692C69.4979 62.4964 69.494 62.4179 69.5119 62.3429C69.6152 61.9006 70.4502 61.6092 71.3783 61.696C72.3063 61.7828 72.9914 62.2096 72.8881 62.6519Z" fill="#080F21"/>
<path d="M66.1522 58.036C66.2648 58.4051 66.3586 58.7797 66.4333 59.1583C66.4812 59.405 66.471 59.6593 66.4036 59.9014C66.3361 60.1434 66.2133 60.3664 66.0447 60.5527C65.8761 60.739 65.6665 60.8835 65.4325 60.9747C65.1984 61.066 64.9463 61.1015 64.6961 61.0784C64.315 61.0454 63.9389 60.9695 63.5748 60.8521C63.4103 60.7959 63.2651 60.6941 63.1562 60.5585C63.0473 60.4229 62.9793 60.2591 62.96 60.0863C62.9074 59.7266 62.9257 59.3602 63.0137 59.0075L63.2297 58.1011C63.3008 57.8095 63.4564 57.5454 63.677 57.3419C63.8976 57.1384 64.1734 57.0046 64.4698 56.9571C64.833 56.9055 65.2026 56.986 65.5114 57.184C65.8202 57.382 66.0476 57.6844 66.1522 58.036Z" fill="white"/>
<path d="M65.778 58.1358C65.9919 58.8592 66.3185 59.7314 65.7842 60.3949C65.6107 60.6213 65.357 60.7725 65.0753 60.8175C64.8675 60.8319 64.6588 60.817 64.4552 60.7731C64.211 60.744 63.9716 60.6828 63.7432 60.5912C63.0942 60.2812 63.3133 59.316 63.4435 58.7683C63.4774 58.2607 63.6855 57.7803 64.0326 57.4083C64.1897 57.311 64.3677 57.2523 64.552 57.2373C64.7362 57.2223 64.9214 57.2514 65.0922 57.3221C65.263 57.3927 65.4145 57.503 65.5343 57.6438C65.6541 57.7846 65.7387 57.9518 65.7811 58.1317C65.8845 58.4562 66.6316 58.2506 66.5303 57.9312C66.3723 57.4724 66.0413 57.0935 65.6079 56.8754C65.1745 56.6572 64.6729 56.6171 64.2103 56.7635C63.7107 56.9067 63.2859 57.2377 63.025 57.6873C62.8975 57.9601 62.8078 58.249 62.7584 58.5461C62.5796 59.2943 62.2975 60.3288 62.995 60.8941C63.1925 61.0352 63.4181 61.1321 63.6564 61.1782C63.9736 61.2632 64.2982 61.3175 64.6258 61.3405C65.1275 61.3733 65.6252 61.2324 66.0353 60.9415C66.4543 60.6441 66.7389 60.1932 66.8269 59.687C66.855 59.0888 66.7546 58.4915 66.5324 57.9353C66.4311 57.6108 65.6829 57.8134 65.778 58.1358Z" fill="#080F21"/>
<path d="M73.0446 59.3522C73.1479 59.9454 73.2513 60.5065 73.3029 61.0243C73.4755 62.5992 72.4297 64.109 71.2216 64.0119C70.7869 63.9804 70.3586 63.8897 69.9484 63.7422C69.7467 63.6361 69.5783 63.476 69.4621 63.2799C69.3458 63.0838 69.2863 62.8592 69.2902 62.6312C69.2489 62.0855 69.2889 61.5366 69.409 61.0026L69.7108 59.6323C69.7723 59.2281 69.9421 58.8481 70.2024 58.5328C70.4626 58.2174 70.8034 57.9784 71.1885 57.8413C72.0411 57.615 72.8389 58.2733 73.0446 59.3522Z" fill="white"/>
<path d="M72.6685 59.4523C73.0461 60.5957 73.0095 61.8354 72.5652 62.9545C72.3802 63.2925 72.0371 63.7741 71.6248 63.8474C71.3394 63.8669 71.0528 63.8318 70.7805 63.7441C70.4901 63.7074 70.2169 63.5859 69.9951 63.3948C69.8303 63.1509 69.716 62.8765 69.6589 62.5878C69.6017 62.299 69.6029 62.0017 69.6623 61.7134C69.7007 61.3258 69.7666 60.9414 69.8597 60.5632C69.9439 59.8614 70.1655 59.1829 70.5118 58.5667C70.8218 58.1285 71.2352 57.8102 71.7633 58.0778C72.0078 58.2251 72.2164 58.4254 72.3735 58.6637C72.5307 58.9021 72.6326 59.1726 72.6717 59.4554C72.7089 59.629 73.4612 59.4554 73.4209 59.2549C73.376 58.9539 73.264 58.6668 73.0931 58.415C72.9223 58.1631 72.697 57.9529 72.434 57.7999C72.1738 57.6885 71.8926 57.6348 71.6097 57.6423C71.3268 57.6498 71.0489 57.7183 70.795 57.8432C70.2185 58.0989 69.7619 58.5656 69.5187 59.1474C69.379 59.5194 69.2752 59.9038 69.2087 60.2955C69.126 60.6676 69.032 61.0397 68.972 61.4158C68.7762 62.1257 68.854 62.8832 69.1901 63.5384C69.4399 63.7666 69.7339 63.9413 70.0538 64.0517C70.3737 64.162 70.7128 64.2058 71.0502 64.1802C71.6329 64.1924 72.2009 63.9963 72.652 63.6273C73.1918 63.1635 73.5453 62.52 73.6472 61.8157C73.7124 60.9551 73.6338 60.0897 73.4147 59.2549C73.3868 59.0834 72.6324 59.2518 72.6685 59.4523Z" fill="#080F21"/>
<path opacity="0.2" d="M48.1235 71.8762L38.026 66.5685C37.0528 66.0523 36.2649 65.2452 35.7721 64.2599C35.3217 63.3458 35.1481 62.3201 35.2726 61.3087C35.397 60.2973 35.8142 59.3444 36.4728 58.5668L37.563 57.2719C37.8955 56.8818 38.3461 56.6107 38.8465 56.4999C39.1766 56.4343 39.4869 56.2927 39.7529 56.0865L40.4318 55.5698C43.5939 57.0908 46.0476 59.7725 47.2823 63.057C48.5045 65.8296 48.7995 68.9226 48.1235 71.8762Z" fill="url(#paint1_linear_1387_20079)"/>
<path d="M83.473 29.5917C83.4737 31.748 83.0495 33.8833 82.2246 35.8756C81.3997 37.8679 80.1903 39.6781 78.6655 41.2028C77.1407 42.7275 75.3304 43.9368 73.3381 44.7616C71.3458 45.5863 69.2104 46.0104 67.0541 46.0096C65.9715 46.011 64.8913 45.9071 63.8288 45.6996C60.0029 44.932 56.5753 42.8272 54.16 39.7624C51.7448 36.6975 50.4996 32.8729 50.6476 28.9736C50.7955 25.0742 52.327 21.3549 54.9676 18.482C57.6083 15.609 61.1855 13.7701 65.0586 13.2946C65.7209 13.2166 66.3872 13.177 67.0541 13.1758C69.2103 13.1747 71.3456 13.5985 73.3379 14.4231C75.3303 15.2476 77.1406 16.4567 78.6654 17.9813C80.1902 19.5058 81.3996 21.3159 82.2246 23.308C83.0495 25.3002 83.4737 27.4355 83.473 29.5917Z" fill="#080F21"/>
<path d="M46.183 36.0563C46.1882 37.4268 45.8294 38.7741 45.1433 39.9605C44.4571 41.1468 43.4682 42.1297 42.2777 42.8087C40.9903 43.4968 39.5295 43.7929 38.0757 43.6603C36.622 43.5277 35.2389 42.9723 34.0972 42.0626C32.8433 41.0571 31.9255 39.6936 31.4658 38.1535C31.0061 36.6135 31.0264 34.9699 31.524 33.4417C32.0519 31.8526 33.0965 30.4859 34.4915 29.5596C35.8865 28.6332 37.5514 28.2005 39.2209 28.3304C41.1246 28.5459 42.8836 29.4506 44.1662 30.8739C45.4487 32.2971 46.1661 34.1405 46.183 36.0563C46.2016 36.883 47.7218 36.6846 47.7052 35.9623C47.6906 33.9989 47.0273 32.0955 45.8186 30.5483C44.6098 29.0011 42.9235 27.8969 41.0221 27.4076C39.1218 26.942 37.1232 27.0858 35.3092 27.8188C33.4952 28.5517 31.9577 29.8367 30.9142 31.4917C29.9233 33.1135 29.4843 35.0127 29.663 36.9049C29.8416 38.797 30.6283 40.5804 31.9053 41.9881C33.1451 43.3117 34.7508 44.2362 36.5178 44.6441C38.2849 45.052 40.1334 44.9247 41.8278 44.2785C43.5223 43.6322 44.9861 42.4963 46.0328 41.0153C47.0794 39.5343 47.6616 37.7753 47.7052 35.9623C47.7166 35.1428 46.1933 35.3308 46.183 36.0563Z" fill="#080F21"/>
<path d="M64.8048 32.6442H62.5933C62.4251 32.6439 62.2613 32.6985 62.127 32.7998C61.9927 32.9011 61.8952 33.0435 61.8492 33.2053L61.8379 33.2374C61.7546 33.5246 61.58 33.7769 61.3406 33.956C61.1012 34.1352 60.81 34.2315 60.5109 34.2305C60.2875 34.2312 60.0672 34.1776 59.8691 34.0743C59.6709 33.971 59.5009 33.821 59.3735 33.6373C59.2462 33.4537 59.1655 33.2419 59.1382 33.0201C59.111 32.7983 59.138 32.5732 59.2171 32.3641L61.5578 26.1398C61.7247 25.6936 62.0238 25.309 62.4151 25.0372C62.8063 24.7654 63.2712 24.6194 63.7476 24.6187C64.224 24.6195 64.6888 24.7656 65.08 25.0373C65.4713 25.3091 65.7704 25.6937 65.9374 26.1398L68.2564 32.3104C68.337 32.5251 68.3644 32.7561 68.3363 32.9837C68.3081 33.2113 68.2254 33.4287 68.095 33.6174C67.9646 33.806 67.7905 33.9603 67.5876 34.0671C67.3846 34.1739 67.1588 34.2299 66.9295 34.2305C66.624 34.2299 66.3268 34.1309 66.082 33.9481C65.8372 33.7653 65.6579 33.5084 65.5706 33.2157L65.5592 33.194C65.507 33.0348 65.406 32.8961 65.2707 32.7974C65.1353 32.6987 64.9723 32.6452 64.8048 32.6442ZM64.4596 29.2029C64.4123 29.048 64.3164 28.9124 64.1862 28.816C64.056 28.7197 63.8982 28.6676 63.7362 28.6676C63.5742 28.6676 63.4165 28.7197 63.2863 28.816C63.1561 28.9124 63.0602 29.048 63.0129 29.2029C62.9783 29.3156 62.9708 29.4349 62.9909 29.5511C63.011 29.6673 63.0582 29.7772 63.1286 29.8717C63.199 29.9663 63.2907 30.043 63.3963 30.0956C63.5019 30.1481 63.6183 30.1751 63.7362 30.1743C63.8544 30.1758 63.9712 30.1493 64.0771 30.0969C64.183 30.0445 64.275 29.9678 64.3456 29.8731C64.4162 29.7783 64.4633 29.6682 64.4831 29.5517C64.5029 29.4352 64.4949 29.3157 64.4596 29.2029Z" fill="white"/>
<path d="M71.5351 24.6177C71.9295 24.6185 72.3075 24.7755 72.5864 25.0544C72.8653 25.3333 73.0224 25.7114 73.0232 26.1058V32.7404C73.0224 33.1349 72.8653 33.513 72.5865 33.7921C72.3076 34.0711 71.9296 34.2284 71.5351 34.2295C71.1404 34.2287 70.7621 34.0715 70.483 33.7924C70.2039 33.5134 70.0467 33.1351 70.0459 32.7404V26.1058C70.0467 25.7112 70.2039 25.333 70.483 25.0541C70.7621 24.7752 71.1404 24.6182 71.5351 24.6177Z" fill="white"/>
<path opacity="0.2" d="M46.8858 35.1028C45.8014 36.2562 44.4094 37.0748 42.8743 37.4617C41.3393 37.8486 39.7255 37.7876 38.224 37.286C36.7226 36.7843 35.3962 35.863 34.4021 34.631C33.4079 33.3991 32.7875 31.9081 32.6143 30.3346C33.9409 28.9243 35.7199 28.0236 37.6418 27.7892C37.978 27.7456 38.3166 27.7238 38.6556 27.7241C40.6962 27.7215 42.6657 28.4736 44.1851 29.8358C45.7045 31.198 46.6664 33.074 46.8858 35.1028Z" fill="url(#paint2_linear_1387_20079)"/>
<path opacity="0.2" d="M36.8196 42.4046C36.823 42.9608 36.7243 43.5129 36.5281 44.0333C35.086 43.6499 33.7735 42.8859 32.7279 41.8212C31.6824 40.7565 30.9422 39.4304 30.585 37.9816C31.0807 37.8078 31.6026 37.7204 32.1279 37.7232C32.7438 37.7206 33.3542 37.8399 33.924 38.0741C34.4937 38.3083 35.0115 38.6529 35.4475 39.088C35.8836 39.5231 36.2293 40.0401 36.4647 40.6093C36.7002 41.1785 36.8208 41.7887 36.8196 42.4046Z" fill="url(#paint3_linear_1387_20079)"/>
<path d="M36.8203 41.9741C37.4282 41.9741 37.9209 41.4814 37.9209 40.8735C37.9209 40.2657 37.4282 39.7729 36.8203 39.7729C36.2125 39.7729 35.7197 40.2657 35.7197 40.8735C35.7197 41.4814 36.2125 41.9741 36.8203 41.9741Z" fill="#898D94"/>
<defs>
<linearGradient id="paint0_linear_1387_20079" x1="55.5465" y1="64.8421" x2="66.3778" y2="64.8421" gradientUnits="userSpaceOnUse">
<stop offset="0.005" stop-color="#3063BA"/>
<stop offset="1" stop-color="#A3BFF6"/>
</linearGradient>
<linearGradient id="paint1_linear_1387_20079" x1="35.2327" y1="63.7266" x2="48.4904" y2="63.7266" gradientUnits="userSpaceOnUse">
<stop offset="0.005" stop-color="#3063BA"/>
<stop offset="1" stop-color="#A3BFF6"/>
</linearGradient>
<linearGradient id="paint2_linear_1387_20079" x1="32.6143" y1="32.7187" x2="46.8858" y2="32.7187" gradientUnits="userSpaceOnUse">
<stop offset="0.005" stop-color="#3063BA"/>
<stop offset="1" stop-color="#A3BFF6"/>
</linearGradient>
<linearGradient id="paint3_linear_1387_20079" x1="30.5819" y1="40.8783" x2="36.8165" y2="40.8783" gradientUnits="userSpaceOnUse">
<stop offset="0.005" stop-color="#3063BA"/>
<stop offset="1" stop-color="#A3BFF6"/>
</linearGradient>
</defs>
</svg>
