<svg width="90" height="91" viewBox="0 0 90 91" fill="none" xmlns="http://www.w3.org/2000/svg">
<path d="M70.3991 32.4621C70.4941 32.8896 70.1616 33.2316 69.7341 33.4026H69.7246C69.3151 33.2617 68.8847 33.191 68.4516 33.1936H68.4136C68.3872 33.1597 68.3678 33.121 68.3566 33.0796C68.3461 33.0622 68.3396 33.0427 68.3376 33.0226C68.2806 32.7756 68.2236 32.5381 68.1571 32.2911C67.1348 28.4019 65.1749 24.8226 62.4489 21.8664C59.7229 18.9101 56.3139 16.6671 52.5202 15.3336C51.8742 15.1056 51.2187 14.9061 50.5442 14.7351C50.4112 14.6971 50.2022 14.6401 49.9742 14.5546C49.845 14.1949 49.6762 13.8508 49.4707 13.5286C50.2052 13.3207 50.9722 13.253 51.7317 13.3291L51.9407 13.3861C56.4331 14.5906 60.5165 16.9869 63.759 20.3214C67.0015 23.6559 69.2827 27.8047 70.3611 32.3291H70.3706C70.3801 32.3766 70.3896 32.4146 70.3991 32.4621Z" fill="black"/>
<path d="M40.4337 13.5667C40.3168 13.7981 40.2214 14.0397 40.1487 14.2887C39.7402 14.4217 39.2557 14.5072 39.0942 14.5452C38.6572 14.6592 38.2392 14.7827 37.8117 14.9252C33.8891 16.2221 30.363 18.5 27.5681 21.5426C24.7732 24.5853 22.8022 28.2917 21.8423 32.3102C21.8138 32.4147 21.7853 32.5097 21.7663 32.6142C21.7034 32.7532 21.6088 32.8755 21.4899 32.9712C21.3711 33.0669 21.2315 33.1333 21.0823 33.1652C20.7398 33.1659 20.3985 33.2073 20.0658 33.2887C19.8093 33.2412 19.6478 33.1082 19.7048 32.8707C19.7238 32.7757 19.7523 32.6712 19.7808 32.5762C20.9169 28.0679 23.2297 23.9421 26.4828 20.6206C29.7359 17.299 33.8126 14.9009 38.2962 13.6712C38.4672 13.6237 38.6477 13.5762 38.8282 13.5287C39.3609 13.4382 39.906 13.4511 40.4337 13.5667Z" fill="black"/>
<path d="M73.9799 39.3213C73.3244 41.8103 69.8094 41.3638 67.8429 41.3638H20.0581C19.5641 41.3638 19.0606 41.3733 18.5666 41.3638C17.9954 41.4214 17.4237 41.2588 16.9682 40.9092C16.5128 40.5597 16.2078 40.0495 16.1156 39.4828C16.0507 38.5943 16.0476 37.7023 16.1061 36.8133C16.1441 34.1533 17.7496 33.0418 19.7826 32.5763C20.4617 32.4334 21.151 32.3444 21.8441 32.3103C23.0886 32.2438 24.3521 32.2913 25.4066 32.2913H36.2935C37.6615 32.2913 36.0275 33.1938 35.4195 33.1938H22.5661C22.0626 33.1938 21.5591 33.1558 21.0841 33.1653C20.7416 33.166 20.4003 33.2075 20.0676 33.2888C19.7461 33.3661 19.4457 33.5135 19.1879 33.7204C18.93 33.9273 18.7211 34.1887 18.5761 34.4858C18.1792 35.4867 18.0388 36.5709 18.1676 37.6398C18.1676 38.6753 18.0441 40.0813 19.3456 40.4328C19.7516 40.4899 20.1629 40.4995 20.5711 40.4613H69.4769C70.1236 40.5421 70.7778 40.5421 71.4244 40.4613C72.2889 40.2143 71.9944 37.7728 71.9849 36.9558C72.0294 36.2024 71.836 35.4539 71.432 34.8164C71.0279 34.1788 70.4338 33.6843 69.7334 33.4028H69.7239C69.3144 33.262 68.884 33.1913 68.4509 33.1938H53.5265C52.1585 33.1938 53.802 32.2913 54.4005 32.2913H68.1944C68.9164 32.2913 69.6479 32.2628 70.3604 32.3293H70.3699C70.8965 32.3458 71.4141 32.4711 71.8899 32.6972C72.3658 32.9234 72.7897 33.2456 73.135 33.6436C73.4804 34.0415 73.7396 34.5066 73.8964 35.0096C74.0533 35.5126 74.1043 36.0426 74.0464 36.5663C74.1339 37.4841 74.1116 38.4089 73.9799 39.3213Z" fill="black"/>
<path d="M69.331 41.6412C69.2281 46.4841 67.6245 51.1757 64.7416 55.0684C61.8587 58.9611 57.8386 61.8629 53.2361 63.3734C48.4586 64.9707 43.3197 65.1445 38.4451 63.8736C33.5706 62.6026 29.1707 59.9418 25.7812 56.2152C22.1618 52.1377 20.1346 46.8916 20.0718 41.4398C20.0651 40.4509 17.9818 40.8233 17.9922 41.6412C18.0701 52.3031 25.4326 61.3015 35.3914 64.6369C45.659 68.0759 57.7534 65.2867 65.114 57.2393C69.095 52.9329 71.339 47.304 71.4124 41.4398C71.42 40.4528 69.3386 40.8204 69.3329 41.6412H69.331Z" fill="black"/>
<g opacity="0.2">
<mask id="mask0_1387_19787" style="mask-type:luminance" maskUnits="userSpaceOnUse" x="19" y="40" width="52" height="25">
<path d="M19.4355 40.8076C19.4355 53.9879 30.9305 64.6726 45.1035 64.6726C59.2765 64.6726 70.7715 53.987 70.7715 40.8076H19.4355Z" fill="white"/>
</mask>
<g mask="url(#mask0_1387_19787)">
<path d="M19.6664 40.8066H19.4355V64.6716H19.6664V40.8066Z" fill="#3063B8"/>
<path d="M20.1202 40.8066H19.668V64.6716H20.1202V40.8066Z" fill="#3063B8"/>
<path d="M20.5674 40.8066H20.1152V64.6716H20.5674V40.8066Z" fill="#3164B9"/>
<path d="M21.0245 40.8066H20.5723V64.6716H21.0245V40.8066Z" fill="#3265B9"/>
<path d="M21.4756 40.8066H21.0234V64.6716H21.4756V40.8066Z" fill="#3365BA"/>
<path d="M21.9288 40.8066H21.4766V64.6716H21.9288V40.8066Z" fill="#3466BA"/>
<path d="M22.3838 40.8066H21.9316V64.6716H22.3838V40.8066Z" fill="#3567BB"/>
<path d="M22.8311 40.8066H22.3789V64.6716H22.8311V40.8066Z" fill="#3668BB"/>
<path d="M23.2881 40.8066H22.8359V64.6716H23.2881V40.8066Z" fill="#3769BC"/>
<path d="M23.7354 40.8066H23.2832V64.6716H23.7354V40.8066Z" fill="#3869BC"/>
<path d="M24.1905 40.8066H23.7383V64.6716H24.1905V40.8066Z" fill="#396ABD"/>
<path d="M24.6377 40.8066H24.1855V64.6716H24.6377V40.8066Z" fill="#3A6BBD"/>
<path d="M25.0948 40.8066H24.6426V64.6716H25.0948V40.8066Z" fill="#3B6CBE"/>
<path d="M25.542 40.8066H25.0898V64.6716H25.542V40.8066Z" fill="#3C6DBE"/>
<path d="M25.9971 40.8066H25.5449V64.6716H25.9971V40.8066Z" fill="#3D6DBF"/>
<path d="M26.4542 40.8066H26.002V64.6716H26.4542V40.8066Z" fill="#3E6EC0"/>
<path d="M26.9014 40.8066H26.4492V64.6716H26.9014V40.8066Z" fill="#3F6FC0"/>
<path d="M27.3565 40.8066H26.9043V64.6716H27.3565V40.8066Z" fill="#4070C1"/>
<path d="M27.8038 40.8066H27.3516V64.6716H27.8038V40.8066Z" fill="#4171C1"/>
<path d="M28.2608 40.8066H27.8086V64.6716H28.2608V40.8066Z" fill="#4271C2"/>
<path d="M28.71 40.8066H28.2578V64.6716H28.71V40.8066Z" fill="#4372C2"/>
<path d="M29.1651 40.8066H28.7129V64.6716H29.1651V40.8066Z" fill="#4473C3"/>
<path d="M29.6202 40.8066H29.168V64.6716H29.6202V40.8066Z" fill="#4574C3"/>
<path d="M30.0674 40.8066H29.6152V64.6716H30.0674V40.8066Z" fill="#4675C4"/>
<path d="M30.5245 40.8066H30.0723V64.6716H30.5245V40.8066Z" fill="#4775C4"/>
<path d="M30.9717 40.8066H30.5195V64.6716H30.9717V40.8066Z" fill="#4876C5"/>
<path d="M31.4268 40.8066H30.9746V64.6716H31.4268V40.8066Z" fill="#4977C5"/>
<path d="M31.8741 40.8066H31.4219V64.6716H31.8741V40.8066Z" fill="#4A78C6"/>
<path d="M32.3311 40.8066H31.8789V64.6716H32.3311V40.8066Z" fill="#4B79C6"/>
<path d="M32.7764 40.8066H32.3242V64.6716H32.7764V40.8066Z" fill="#4C7AC7"/>
<path d="M33.2334 40.8066H32.7812V64.6716H33.2334V40.8066Z" fill="#4D7AC8"/>
<path d="M33.6905 40.8066H33.2383V64.6716H33.6905V40.8066Z" fill="#4E7BC8"/>
<path d="M34.1377 40.8066H33.6855V64.6716H34.1377V40.8066Z" fill="#4F7CC9"/>
<path d="M34.5928 40.8066H34.1406V64.6716H34.5928V40.8066Z" fill="#507DC9"/>
<path d="M35.0401 40.8066H34.5879V64.6716H35.0401V40.8066Z" fill="#517ECA"/>
<path d="M35.4971 40.8066H35.0449V64.6716H35.4971V40.8066Z" fill="#527ECA"/>
<path d="M35.9444 40.8066H35.4922V64.6716H35.9444V40.8066Z" fill="#537FCB"/>
<path d="M36.3995 40.8066H35.9473V64.6716H36.3995V40.8066Z" fill="#5480CB"/>
<path d="M36.8565 40.8066H36.4043V64.6716H36.8565V40.8066Z" fill="#5581CC"/>
<path d="M37.3038 40.8066H36.8516V64.6716H37.3038V40.8066Z" fill="#5682CC"/>
<path d="M37.7608 40.8066H37.3086V64.6716H37.7608V40.8066Z" fill="#5782CD"/>
<path d="M38.2061 40.8066H37.7539V64.6716H38.2061V40.8066Z" fill="#5883CD"/>
<path d="M38.6631 40.8066H38.2109V64.6716H38.6631V40.8066Z" fill="#5984CE"/>
<path d="M39.1104 40.8066H38.6582V64.6716H39.1104V40.8066Z" fill="#5A85CF"/>
<path d="M39.5674 40.8066H39.1152V64.6716H39.5674V40.8066Z" fill="#5B86CF"/>
<path d="M40.0147 40.8066H39.5625V64.6716H40.0147V40.8066Z" fill="#5C86D0"/>
<path d="M40.4698 40.8066H40.0176V64.6716H40.4698V40.8066Z" fill="#5D87D0"/>
<path d="M40.9268 40.8066H40.4746V64.6716H40.9268V40.8066Z" fill="#5E88D1"/>
<path d="M41.3721 40.8066H40.9199V64.6716H41.3721V40.8066Z" fill="#5F89D1"/>
<path d="M41.8292 40.8066H41.377V64.6716H41.8292V40.8066Z" fill="#608AD2"/>
<path d="M42.2764 40.8066H41.8242V64.6716H42.2764V40.8066Z" fill="#618AD2"/>
<path d="M42.7334 40.8066H42.2812V64.6716H42.7334V40.8066Z" fill="#628BD3"/>
<path d="M43.1827 40.8066H42.7305V64.6716H43.1827V40.8066Z" fill="#638CD3"/>
<path d="M43.6358 40.8066H43.1836V64.6716H43.6358V40.8066Z" fill="#648DD4"/>
<path d="M44.0909 40.8066H43.6387V64.6716H44.0909V40.8066Z" fill="#658ED4"/>
<path d="M44.5401 40.8066H44.0879V64.6716H44.5401V40.8066Z" fill="#668ED5"/>
<path d="M44.9971 40.8066H44.5449V64.6716H44.9971V40.8066Z" fill="#678FD5"/>
<path d="M45.4424 40.8066H44.9902V64.6716H45.4424V40.8066Z" fill="#6990D6"/>
<path d="M45.8995 40.8066H45.4473V64.6716H45.8995V40.8066Z" fill="#6A91D7"/>
<path d="M46.3467 40.8066H45.8945V64.6716H46.3467V40.8066Z" fill="#6B92D7"/>
<path d="M46.8018 40.8066H46.3496V64.6716H46.8018V40.8066Z" fill="#6C92D8"/>
<path d="M47.2549 40.8066H46.8027V64.6716H47.2549V40.8066Z" fill="#6D93D8"/>
<path d="M47.7061 40.8066H47.2539V64.6716H47.7061V40.8066Z" fill="#6E94D9"/>
<path d="M48.1631 40.8066H47.7109V64.6716H48.1631V40.8066Z" fill="#6F95D9"/>
<path d="M48.6084 40.8066H48.1562V64.6716H48.6084V40.8066Z" fill="#7096DA"/>
<path d="M49.0655 40.8066H48.6133V64.6716H49.0655V40.8066Z" fill="#7196DA"/>
<path d="M49.5127 40.8066H49.0605V64.6716H49.5127V40.8066Z" fill="#7297DB"/>
<path d="M49.9678 40.8066H49.5156V64.6716H49.9678V40.8066Z" fill="#7398DB"/>
<path d="M50.419 40.8066H49.9668V64.6716H50.419V40.8066Z" fill="#7499DC"/>
<path d="M50.8721 40.8066H50.4199V64.6716H50.8721V40.8066Z" fill="#759ADC"/>
<path d="M51.3252 40.8066H50.873V64.6716H51.3252V40.8066Z" fill="#769ADD"/>
<path d="M51.7745 40.8066H51.3223V64.6716H51.7745V40.8066Z" fill="#779BDE"/>
<path d="M52.2334 40.8066H51.7812V64.6716H52.2334V40.8066Z" fill="#789CDE"/>
<path d="M52.6788 40.8066H52.2266V64.6716H52.6788V40.8066Z" fill="#799DDF"/>
<path d="M53.1358 40.8066H52.6836V64.6716H53.1358V40.8066Z" fill="#7A9EDF"/>
<path d="M53.5831 40.8066H53.1309V64.6716H53.5831V40.8066Z" fill="#7B9EE0"/>
<path d="M54.0381 40.8066H53.5859V64.6716H54.0381V40.8066Z" fill="#7C9FE0"/>
<path d="M54.4893 40.8066H54.0371V64.6716H54.4893V40.8066Z" fill="#7DA0E1"/>
<path d="M54.9424 40.8066H54.4902V64.6716H54.9424V40.8066Z" fill="#7EA1E1"/>
<path d="M55.3995 40.8066H54.9473V64.6716H55.3995V40.8066Z" fill="#7FA2E2"/>
<path d="M55.8448 40.8066H55.3926V64.6716H55.8448V40.8066Z" fill="#80A2E2"/>
<path d="M56.3018 40.8066H55.8496V64.6716H56.3018V40.8066Z" fill="#81A3E3"/>
<path d="M56.7491 40.8066H56.2969V64.6716H56.7491V40.8066Z" fill="#82A4E3"/>
<path d="M57.2041 40.8066H56.752V64.6716H57.2041V40.8066Z" fill="#83A5E4"/>
<path d="M57.6573 40.8066H57.2051V64.6716H57.6573V40.8066Z" fill="#84A6E4"/>
<path d="M58.1084 40.8066H57.6562V64.6716H58.1084V40.8066Z" fill="#85A7E5"/>
<path d="M58.5616 40.8066H58.1094V64.6716H58.5616V40.8066Z" fill="#86A7E6"/>
<path d="M59.0108 40.8066H58.5586V64.6716H59.0108V40.8066Z" fill="#87A8E6"/>
<path d="M59.4678 40.8066H59.0156V64.6716H59.4678V40.8066Z" fill="#88A9E7"/>
<path d="M59.9151 40.8066H59.4629V64.6716H59.9151V40.8066Z" fill="#89AAE7"/>
<path d="M60.3721 40.8066H59.9199V64.6716H60.3721V40.8066Z" fill="#8AABE8"/>
<path d="M60.8194 40.8066H60.3672V64.6716H60.8194V40.8066Z" fill="#8BABE8"/>
<path d="M61.2745 40.8066H60.8223V64.6716H61.2745V40.8066Z" fill="#8CACE9"/>
<path d="M61.7237 40.8066H61.2715V64.6716H61.7237V40.8066Z" fill="#8DADE9"/>
<path d="M62.1788 40.8066H61.7266V64.6716H62.1788V40.8066Z" fill="#8EAEEA"/>
<path d="M62.6338 40.8066H62.1816V64.6716H62.6338V40.8066Z" fill="#8FAFEA"/>
<path d="M63.0811 40.8066H62.6289V64.6716H63.0811V40.8066Z" fill="#90AFEB"/>
<path d="M63.5381 40.8066H63.0859V64.6716H63.5381V40.8066Z" fill="#91B0EB"/>
<path d="M63.9854 40.8066H63.5332V64.6716H63.9854V40.8066Z" fill="#92B1EC"/>
<path d="M64.4405 40.8066H63.9883V64.6716H64.4405V40.8066Z" fill="#93B2ED"/>
<path d="M64.8917 40.8066H64.4395V64.6716H64.8917V40.8066Z" fill="#94B3ED"/>
<path d="M65.3448 40.8066H64.8926V64.6716H65.3448V40.8066Z" fill="#95B3EE"/>
<path d="M65.792 40.8066H65.3398V64.6716H65.792V40.8066Z" fill="#96B4EE"/>
<path d="M66.2471 40.8066H65.7949V64.6716H66.2471V40.8066Z" fill="#97B5EF"/>
<path d="M66.7042 40.8066H66.252V64.6716H66.7042V40.8066Z" fill="#98B6EF"/>
<path d="M67.1514 40.8066H66.6992V64.6716H67.1514V40.8066Z" fill="#99B7F0"/>
<path d="M67.6084 40.8066H67.1562V64.6716H67.6084V40.8066Z" fill="#9AB7F0"/>
<path d="M68.0557 40.8066H67.6035V64.6716H68.0557V40.8066Z" fill="#9BB8F1"/>
<path d="M68.5108 40.8066H68.0586V64.6716H68.5108V40.8066Z" fill="#9CB9F1"/>
<path d="M68.96 40.8066H68.5078V64.6716H68.96V40.8066Z" fill="#9DBAF2"/>
<path d="M69.4151 40.8066H68.9629V64.6716H69.4151V40.8066Z" fill="#9EBBF2"/>
<path d="M69.8702 40.8066H69.418V64.6716H69.8702V40.8066Z" fill="#9FBBF3"/>
<path d="M70.3174 40.8066H69.8652V64.6716H70.3174V40.8066Z" fill="#A0BCF3"/>
<path d="M70.7745 40.8066H70.3223V64.6716H70.7745V40.8066Z" fill="#A1BDF4"/>
</g>
</g>
<path d="M57.8839 62.6577V66.0967C57.4469 66.2677 56.9909 66.3817 56.6679 66.4767C54.3781 67.0504 52.0348 67.3847 49.6759 67.4742C44.6314 67.7877 39.207 67.7782 34.2955 66.4482C33.3103 66.2516 32.3699 65.8748 31.5215 65.3367V62.6577C31.5215 59.271 57.8839 59.271 57.8839 62.6577Z" fill="#080F21"/>
<path d="M57.8839 66.9565V70.7328C57.4875 70.8865 57.0813 71.0135 56.6679 71.1128C54.3775 71.685 52.0347 72.0224 49.6759 72.1198C44.6314 72.4238 39.207 72.4143 34.2955 71.0938C33.3099 70.8935 32.3695 70.5135 31.5215 69.9728V66.9993C31.721 67.0658 31.911 67.1228 32.0725 67.1703C34.5918 67.8721 37.1831 68.2832 39.796 68.3958C45.4769 68.7853 51.6804 68.7948 57.1904 67.1703C57.3994 67.1085 57.6274 67.0325 57.8839 66.9565Z" fill="#080F21"/>
<path d="M57.8839 71.5928V75.2028C57.3725 75.4309 56.8415 75.6122 56.2974 75.7443C54.0079 76.3211 51.6647 76.6585 49.3054 76.7513C44.2609 77.0553 38.8365 77.0553 33.9155 75.7253C33.0851 75.5363 32.2811 75.2459 31.5215 74.8608V71.6308C31.721 71.6973 31.911 71.7543 32.0725 71.8018C34.5915 72.5066 37.1828 72.921 39.796 73.0368C45.4769 73.4263 51.6804 73.4263 57.1904 71.8018C57.3994 71.7448 57.6274 71.6688 57.8839 71.5928Z" fill="#080F21"/>
<path d="M56.8199 76.4472C57.1239 76.3617 57.4944 76.2477 57.8839 76.1147V78.3377C57.8839 82.5937 31.5215 82.5937 31.5215 78.3377V76.3902C31.588 76.4092 31.645 76.4282 31.702 76.4472C34.2223 77.1444 36.8131 77.5555 39.4255 77.6727C45.1064 78.0622 51.3099 78.0717 56.8199 76.4472Z" fill="#080F21"/>
<path d="M36.3665 79.1735C36.3099 80.7421 36.7188 82.2924 37.5417 83.629C38.4488 85.028 39.7973 86.084 41.373 86.6291C43.1211 87.2077 45.0019 87.2527 46.7757 86.7584C48.5495 86.264 50.1359 85.2526 51.3328 83.8532C52.4791 82.4344 53.0835 80.6541 53.038 78.8306C53.038 78.2245 52.3245 78.1779 51.8486 78.2359C51.4563 78.2834 50.2849 78.5978 50.2849 79.1735C50.3576 80.8463 49.8171 82.4881 48.7649 83.7905C48.3274 84.333 47.7749 84.7715 47.1473 85.0744C46.5198 85.3773 45.8328 85.5372 45.1359 85.5423C41.5611 85.4939 39.1167 82.2012 39.1167 78.8306C39.1167 78.2245 38.4033 78.1779 37.9264 78.2359C37.535 78.2834 36.3627 78.5978 36.3627 79.1735H36.3665Z" fill="black"/>
<path d="M66.1634 48.6422C67.088 46.3952 66.8836 44.1812 65.707 43.6971C64.5304 43.2129 62.8271 44.642 61.9025 46.889C60.978 49.136 61.1824 51.35 62.359 51.8341C63.5356 52.3182 65.2389 50.8892 66.1634 48.6422Z" fill="white"/>
<path fill-rule="evenodd" clip-rule="evenodd" d="M45.7309 7.24544C45.818 7.15938 45.8869 7.05665 45.9334 6.94337C45.9799 6.83009 46.0031 6.70859 46.0016 6.58614V4.31089C45.9939 4.069 45.8924 3.8396 45.7186 3.67122C45.5447 3.50284 45.3122 3.40869 45.0702 3.40869C44.8282 3.40869 44.5956 3.50284 44.4218 3.67122C44.248 3.8396 44.1464 4.069 44.1387 4.31089V6.58519C44.1377 6.70779 44.161 6.82936 44.2074 6.94287C44.2537 7.05637 44.3221 7.15955 44.4086 7.24642C44.4951 7.33329 44.598 7.40212 44.7114 7.44891C44.8247 7.49571 44.9462 7.51955 45.0687 7.51904C45.1918 7.52028 45.3139 7.49669 45.4277 7.44968C45.5415 7.40267 45.6446 7.33321 45.7309 7.24544Z" fill="#080F21"/>
<path fill-rule="evenodd" clip-rule="evenodd" d="M21.3455 15.6332C21.1675 15.8057 21.0651 16.0417 21.0607 16.2895C21.0562 16.5373 21.1501 16.7768 21.3217 16.9556L22.8949 18.5962C22.9803 18.6847 23.0823 18.7556 23.1951 18.8047C23.3078 18.8538 23.4292 18.8802 23.5521 18.8824C23.6751 18.8846 23.7973 18.8625 23.9118 18.8175C24.0262 18.7725 24.1307 18.7054 24.2192 18.62C24.3077 18.5346 24.3785 18.4326 24.4276 18.3198C24.4767 18.2071 24.5031 18.0857 24.5053 17.9627C24.5075 17.8398 24.4855 17.7176 24.4405 17.6031C24.3955 17.4887 24.3283 17.3842 24.2429 17.2957L22.6697 15.656C22.4964 15.4787 22.2602 15.377 22.0123 15.3727C21.7644 15.3684 21.5248 15.462 21.3455 15.6332Z" fill="#080F21"/>
<path fill-rule="evenodd" clip-rule="evenodd" d="M67.782 15.6665L66.1414 17.2397C66.053 17.3249 65.9823 17.4268 65.9332 17.5394C65.8842 17.652 65.8578 17.7731 65.8556 17.8959C65.8534 18.0187 65.8754 18.1408 65.9204 18.255C65.9653 18.3693 66.0323 18.4737 66.1176 18.5621C66.2029 18.6504 66.3047 18.7212 66.4173 18.7702C66.5299 18.8192 66.6511 18.8456 66.7739 18.8478C66.8967 18.85 67.0187 18.828 67.133 18.7831C67.2473 18.7381 67.3516 18.6711 67.44 18.5858L69.0807 17.0126C69.169 16.9273 69.2398 16.8255 69.2888 16.7129C69.3378 16.6003 69.3642 16.4791 69.3664 16.3563C69.3686 16.2335 69.3466 16.1115 69.3017 15.9972C69.2567 15.8829 69.1897 15.7786 69.1044 15.6902C69.0191 15.6018 68.9173 15.5311 68.8047 15.4821C68.6921 15.433 68.5709 15.4067 68.4481 15.4044C68.3253 15.4022 68.2033 15.4242 68.089 15.4692C67.9747 15.5142 67.8704 15.5812 67.782 15.6665Z" fill="#080F21"/>
<path fill-rule="evenodd" clip-rule="evenodd" d="M78.8897 36.2289H76.6163C76.491 36.2254 76.3663 36.2471 76.2495 36.2927C76.1327 36.3383 76.0263 36.407 75.9365 36.4945C75.8468 36.5821 75.7756 36.6868 75.7271 36.8024C75.6786 36.918 75.6539 37.0422 75.6543 37.1676C75.6547 37.293 75.6804 37.417 75.7297 37.5323C75.779 37.6475 75.851 37.7517 75.9413 37.8386C76.0317 37.9256 76.1386 37.9934 76.2557 38.0382C76.3728 38.083 76.4977 38.1038 76.623 38.0994H78.8954C79.1383 38.091 79.3683 37.9884 79.5369 37.8133C79.7055 37.6382 79.7993 37.4044 79.7986 37.1614C79.7979 36.9184 79.7026 36.6851 79.533 36.5111C79.3633 36.3371 79.1326 36.2359 78.8897 36.2289Z" fill="#080F21"/>
<path fill-rule="evenodd" clip-rule="evenodd" d="M13.4391 36.2298L11.1667 36.2251C11.0414 36.2211 10.9165 36.2423 10.7996 36.2875C10.6826 36.3327 10.5759 36.401 10.4859 36.4882C10.3958 36.5755 10.3242 36.6799 10.2753 36.7954C10.2264 36.9109 10.2012 37.035 10.2012 37.1604C10.2012 37.2858 10.2264 37.4099 10.2753 37.5253C10.3242 37.6408 10.3958 37.7453 10.4859 37.8325C10.5759 37.9197 10.6826 37.988 10.7996 38.0332C10.9165 38.0784 11.0414 38.0996 11.1667 38.0956H13.4401C13.683 38.0879 13.9133 37.986 14.0824 37.8114C14.2515 37.6369 14.346 37.4034 14.346 37.1604C14.346 36.9173 14.2515 36.6839 14.0824 36.5093C13.9133 36.3348 13.683 36.2328 13.4401 36.2251L13.4391 36.2298Z" fill="#080F21"/>
<path d="M47.9156 60.5805L47.8861 50.7955C47.8861 49.5139 47.5698 47.6291 48.6461 46.6905C50.0093 45.4973 51.839 47.004 51.9388 48.5183C51.9715 48.7985 51.9472 49.0824 51.8676 49.353C51.7879 49.6236 51.6545 49.8753 51.4752 50.0931C51.2959 50.3108 51.0745 50.4902 50.8243 50.6203C50.574 50.7505 50.3001 50.8288 50.0188 50.8506C46.6103 50.9912 43.1741 50.8895 39.7589 50.9095C39.3151 50.9437 38.8688 50.9265 38.4289 50.8582C38.0489 50.7488 37.7009 50.5495 37.4143 50.2771C37.1276 50.0047 36.9108 49.6673 36.7822 49.2934C36.6536 48.9195 36.617 48.5201 36.6754 48.129C36.7338 47.738 36.8856 47.3667 37.1179 47.0468C38.2759 45.5553 40.3232 46.6715 40.6452 48.2542C40.708 48.6984 40.7261 49.1478 40.6994 49.5956V60.4731C40.6994 61.1001 42.0826 60.8351 42.0826 60.3249V49.0313C42.15 48.2203 41.9458 47.4098 41.5021 46.7276C41.0096 46.1278 40.3315 45.709 39.5748 45.537C38.818 45.365 38.0255 45.4496 37.3221 45.7776C36.611 46.0577 36.0218 46.5803 35.6586 47.2529C35.2955 47.9255 35.1818 48.7048 35.3376 49.4531C35.5279 50.1237 35.933 50.7132 36.4908 51.1313C37.0485 51.5493 37.7281 51.7728 38.4251 51.7673C42.0911 51.8823 45.7895 51.7426 49.4564 51.7037C49.9946 51.7273 50.5321 51.6437 51.0376 51.4578C51.5432 51.2718 52.0068 50.9873 52.4014 50.6207C52.947 50.085 53.2719 49.3643 53.312 48.6008C53.3521 47.8373 53.1045 47.0865 52.618 46.4967C50.6506 44.2034 46.5846 45.7434 46.501 48.6988C46.3899 52.7002 46.5248 56.7225 46.5371 60.7258C46.5371 61.3538 47.9213 61.0878 47.9203 60.5776L47.9156 60.5805Z" fill="black"/>
<path d="M52.5145 15.3338C51.8685 15.1058 51.213 14.9063 50.5385 14.7353C50.4055 14.6973 50.1965 14.6403 49.9685 14.5548C49.8394 14.1951 49.6705 13.851 49.465 13.5288C49.1442 12.9822 48.7367 12.4913 48.2586 12.0753C47.7877 11.6167 47.2288 11.2582 46.6156 11.0215C46.0025 10.7847 45.3477 10.6745 44.6908 10.6976C44.0339 10.7207 43.3885 10.8765 42.7935 11.1557C42.1985 11.435 41.6661 11.8318 41.2286 12.3223C40.9036 12.6962 40.6348 13.1154 40.4306 13.5668C40.3136 13.7982 40.2182 14.0399 40.1456 14.2888C39.7371 14.4218 39.2526 14.5073 39.0911 14.5453C38.6541 14.6593 38.2361 14.7828 37.8086 14.9253C37.8378 14.7899 37.8759 14.6566 37.9226 14.5263C38.0224 14.2316 38.1463 13.9456 38.2931 13.6713C38.88 12.5185 39.7617 11.5417 40.8486 10.8403C42.2388 9.90473 43.8871 9.4282 45.5621 9.47761C47.237 9.52702 48.8544 10.0999 50.187 11.1158C50.9291 11.7354 51.5258 12.5105 51.935 13.3863C52.1979 13.9277 52.3834 14.5033 52.486 15.0963C52.5002 15.1748 52.5097 15.2541 52.5145 15.3338Z" fill="black"/>
</svg>
